<svg xmlns="http://www.w3.org/2000/svg" width="1024" height="600" viewBox="0 0 1024 600" font-family="sans-serif" font-size="10" fill="none" stroke="#999">
<rect width="1024" height="600" fill="#1b1f24" stroke="none"/><rect width="1024" height="40" stroke="#777"/><rect y="562" width="1024" height="38" stroke="#777"/>
<text x="16" y="26" fill="#ddd" stroke="none" font-size="12">Library  T5</text><text x="446" y="26" fill="#ddd" stroke="none" font-size="12">⚡ 7  ◆ 3  ❀ 2</text><text x="820" y="26" fill="#ddd" stroke="none" font-size="12">Companion away · with Dot</text>
<rect x="16" y="52" width="116" height="104" fill="#e9e2d0" stroke="#555"/><rect x="16" y="52" width="6" height="104" fill="#5a9a4a" stroke="none"/>
<text x="30" y="92" fill="#333" stroke="none">Pip · placed</text>
<rect x="24" y="130" width="100" height="20" stroke="#876"/><text x="38" y="144" fill="#777" stroke="none">name · placed</text>
<rect x="140" y="52" width="116" height="104" fill="#e9e2d0" stroke="#555"/><rect x="140" y="52" width="6" height="104" fill="#e98268" stroke="none"/>
<text x="154" y="92" fill="#333" stroke="none">Untuva fluff</text>
<rect x="148" y="130" width="100" height="20" stroke="#876"/><text x="162" y="144" fill="#777" stroke="none">name · placed</text>
<rect x="264" y="52" width="116" height="104" fill="#e9e2d0" stroke="#555"/><rect x="264" y="52" width="6" height="104" fill="#269fa5" stroke="none"/>
<text x="278" y="92" fill="#333" stroke="none">Tuikis lizard</text>
<rect x="272" y="130" width="100" height="20" stroke="#876"/><text x="286" y="144" fill="#777" stroke="none">name · placed</text>
<rect x="260" y="48" width="124" height="112" stroke="#eda" stroke-width="2"/>
<rect x="388" y="52" width="116" height="104" fill="#3a4148" stroke="#555"/><rect x="388" y="52" width="6" height="104" fill="#7a6f9a" stroke="none"/>
<text x="402" y="92" fill="#aaa" stroke="none">cat · slate</text>
<rect x="396" y="130" width="100" height="20" stroke="#666"/><text x="410" y="144" fill="#777" stroke="none">name · placed</text>
<rect x="512" y="52" width="116" height="104" fill="#2b3137" stroke="#555"/><rect x="512" y="52" width="6" height="104" fill="#c97b3a" stroke="none"/>
<text x="526" y="92" fill="#5a6168" stroke="none">fox</text>
<rect x="636" y="52" width="116" height="104" fill="#2b3137" stroke="#555"/><rect x="636" y="52" width="6" height="104" fill="#4d5f73" stroke="none"/>
<text x="650" y="92" fill="#5a6168" stroke="none">raccoon</text>
<rect x="760" y="52" width="116" height="104" fill="#2b3137" stroke="#555"/><rect x="760" y="52" width="6" height="104" fill="#8a6a4a" stroke="none"/>
<text x="774" y="92" fill="#5a6168" stroke="none">badger</text>
<rect x="884" y="52" width="116" height="104" fill="#2b3137" stroke="#555"/><rect x="884" y="52" width="6" height="104" fill="#9a8a5a" stroke="none"/>
<text x="898" y="92" fill="#5a6168" stroke="none">goat</text>
<rect x="16" y="164" width="116" height="104" fill="#2b3137" stroke="#555"/><rect x="16" y="164" width="6" height="104" fill="#5f8aa5" stroke="none"/>
<text x="30" y="204" fill="#5a6168" stroke="none">big bird</text>
<rect x="140" y="164" width="116" height="104" fill="#2b3137" stroke="#555"/><rect x="140" y="164" width="6" height="104" fill="#3f8a7a" stroke="none"/>
<text x="154" y="204" fill="#5a6168" stroke="none">otter</text>
<rect x="264" y="164" width="116" height="104" fill="#2b3137" stroke="#555"/><rect x="264" y="164" width="6" height="104" fill="#6a7a3a" stroke="none"/>
<text x="278" y="204" fill="#5a6168" stroke="none">turtle</text>
<rect x="388" y="164" width="116" height="104" fill="#2b3137" stroke="#555"/><rect x="388" y="164" width="6" height="104" fill="#b56a8a" stroke="none"/>
<text x="402" y="204" fill="#5a6168" stroke="none">moth</text>
<rect x="512" y="164" width="116" height="104" fill="#2b3137" stroke="#555"/><rect x="512" y="164" width="6" height="104" fill="#4a4a6a" stroke="none"/>
<text x="526" y="204" fill="#5a6168" stroke="none">beetle</text>
<rect x="636" y="164" width="116" height="104" fill="#2b3137" stroke="#555"/><rect x="636" y="164" width="6" height="104" fill="#8aa59a" stroke="none"/>
<text x="650" y="204" fill="#5a6168" stroke="none">slug</text>
<rect x="760" y="164" width="116" height="104" fill="#2b3137" stroke="#555"/><rect x="760" y="164" width="6" height="104" fill="#6aa54a" stroke="none"/>
<text x="774" y="204" fill="#5a6168" stroke="none">bulb on roots</text>
<rect x="884" y="164" width="116" height="104" fill="#2b3137" stroke="#555"/><rect x="884" y="164" width="6" height="104" fill="#c9b03a" stroke="none"/>
<text x="898" y="204" fill="#5a6168" stroke="none">vertical bolt</text>
<rect x="16" y="276" width="116" height="104" stroke="#3a4148" stroke-dasharray="3 3"/>
<rect x="140" y="276" width="116" height="104" stroke="#3a4148" stroke-dasharray="3 3"/>
<rect x="264" y="276" width="116" height="104" stroke="#3a4148" stroke-dasharray="3 3"/>
<rect x="388" y="276" width="116" height="104" stroke="#3a4148" stroke-dasharray="3 3"/>
<rect x="512" y="276" width="116" height="104" stroke="#3a4148" stroke-dasharray="3 3"/>
<rect x="636" y="276" width="116" height="104" stroke="#3a4148" stroke-dasharray="3 3"/>
<rect x="760" y="276" width="116" height="104" stroke="#3a4148" stroke-dasharray="3 3"/>
<rect x="884" y="276" width="116" height="104" stroke="#3a4148" stroke-dasharray="3 3"/>
<rect x="16" y="388" width="116" height="104" stroke="#3a4148" stroke-dasharray="3 3"/>
<rect x="140" y="388" width="116" height="104" stroke="#3a4148" stroke-dasharray="3 3"/>
<rect x="264" y="388" width="116" height="104" stroke="#3a4148" stroke-dasharray="3 3"/>
<rect x="388" y="388" width="116" height="104" stroke="#3a4148" stroke-dasharray="3 3"/>
<rect x="512" y="388" width="116" height="104" stroke="#3a4148" stroke-dasharray="3 3"/>
<rect x="636" y="388" width="116" height="104" stroke="#3a4148" stroke-dasharray="3 3"/>
<rect x="760" y="388" width="116" height="104" stroke="#3a4148" stroke-dasharray="3 3"/>
<rect x="884" y="388" width="116" height="104" stroke="#3a4148" stroke-dasharray="3 3"/>
<text x="24" y="340" fill="#4a5158" stroke="none" font-size="12">empty carcass · the next drops' boxes appear here</text>
<rect x="16" y="504" width="992" height="44" fill="#262c32" stroke="#555"/><text x="28" y="531" fill="#999" stroke="none" font-size="12">record</text>
<rect x="100" y="520" width="12" height="12" fill="#e9e2d0" stroke="#888"/>
<rect x="116" y="520" width="12" height="12" fill="#e9e2d0" stroke="#888"/>
<rect x="132" y="520" width="12" height="12" fill="#e9e2d0" stroke="#888"/>
<rect x="148" y="520" width="12" height="12" fill="#5a6168" stroke="#888"/>
<rect x="164" y="520" width="12" height="12" fill="none" stroke="#888"/>
<rect x="180" y="520" width="12" height="12" fill="none" stroke="#888"/>
<rect x="196" y="520" width="12" height="12" fill="none" stroke="#888"/>
<rect x="212" y="520" width="12" height="12" fill="none" stroke="#888"/>
<rect x="228" y="520" width="12" height="12" fill="none" stroke="#888"/>
<rect x="244" y="520" width="12" height="12" fill="none" stroke="#888"/>
<rect x="260" y="520" width="12" height="12" fill="none" stroke="#888"/>
<rect x="276" y="520" width="12" height="12" fill="none" stroke="#888"/>
<rect x="292" y="520" width="12" height="12" fill="none" stroke="#888"/>
<rect x="308" y="520" width="12" height="12" fill="none" stroke="#888"/>
<rect x="324" y="520" width="12" height="12" fill="none" stroke="#888"/>
<rect x="340" y="520" width="12" height="12" fill="none" stroke="#888"/>
<rect x="380" y="522" width="200" height="8" stroke="#888"/><rect x="380" y="522" width="37" height="8" fill="#e9e2d0" stroke="none"/>
<rect x="620" y="518" width="4" height="16" fill="#5a9a4a" stroke="#5a9a4a"/>
<rect x="636" y="518" width="4" height="16" fill="#e98268" stroke="#e98268"/>
<rect x="652" y="518" width="4" height="16" fill="#269fa5" stroke="#269fa5"/>
<rect x="668" y="518" width="4" height="16" fill="#7a6f9a" stroke="#7a6f9a"/>
<rect x="684" y="518" width="4" height="16" fill="none" stroke="#c97b3a"/>
<rect x="700" y="518" width="4" height="16" fill="none" stroke="#4d5f73"/>
<rect x="716" y="518" width="4" height="16" fill="none" stroke="#8a6a4a"/>
<rect x="732" y="518" width="4" height="16" fill="none" stroke="#9a8a5a"/>
<rect x="748" y="518" width="4" height="16" fill="none" stroke="#5f8aa5"/>
<rect x="764" y="518" width="4" height="16" fill="none" stroke="#3f8a7a"/>
<rect x="780" y="518" width="4" height="16" fill="none" stroke="#6a7a3a"/>
<rect x="796" y="518" width="4" height="16" fill="none" stroke="#b56a8a"/>
<rect x="812" y="518" width="4" height="16" fill="none" stroke="#4a4a6a"/>
<rect x="828" y="518" width="4" height="16" fill="none" stroke="#8aa59a"/>
<rect x="844" y="518" width="4" height="16" fill="none" stroke="#6aa54a"/>
<rect x="860" y="518" width="4" height="16" fill="none" stroke="#c9b03a"/>
<text x="16" y="586" fill="#f06d1e" stroke="none" font-size="12">✓ Open · ← Home</text><text x="440" y="586" fill="#666" stroke="none" font-size="12">(name · placed)</text><text x="860" y="586" fill="#bbb" stroke="none" font-size="12">a pod waits in the tray</text></svg>