<svg xmlns="http://www.w3.org/2000/svg" width="768" height="512" viewBox="0 0 768 512"><title>Shared YZ camera: inherited colours above, diagnostic silhouettes below</title><svg x="0" y="0" xmlns="http://www.w3.org/2000/svg" width="256" height="256" viewBox="0 0 256 256"><title>Radial XYZ source projected along X into YZ; inspection overlay, not physical depth sorting</title><desc>Body first; contacts and root rings exposed for inspection. Neutral outline, texture and root ink are not inherited pigment. Silhouette mode is a diagnostic pigment override only.</desc><rect width="256" height="256" fill="#f7f5ee"/><defs><clipPath id="graph-radial-b097a998c0b31a0b8b6e-colour-radial-body"><path d="M 0.45 0 L 0.449036515 0.009810469 L 0.446150188 0.019578929 L 0.441353376 0.029263548 L 0.434666622 0.038822857 L 0.426118558 0.04821592 L 0.41574579 0.057402515 L 0.403592734 0.066343304 L 0.389711432 0.075 L 0.374161326 0.083335535 L 0.357009003 0.091314214 L 0.338327913 0.098901872 L 0.318198052 0.106066017 L 0.296705617 0.112775971 L 0.273942643 0.119003001 L 0.250006605 0.124720442 L 0.225 0.129903811 L 0.199029911 0.134530911 L 0.172207545 0.13858193 L 0.144647759 0.142039519 L 0.11646857 0.144888874 L 0.087790645 0.147117792 L 0.058736786 0.148716729 L 0.029431408 0.149678838 L 0 0.15 L -0.029431408 0.149678838 L -0.058736786 0.148716729 L -0.087790645 0.147117792 L -0.11646857 0.144888874 L -0.144647759 0.142039519 L -0.172207545 0.13858193 L -0.199029911 0.134530911 L -0.225 0.129903811 L -0.250006605 0.124720442 L -0.273942643 0.119003001 L -0.296705617 0.112775971 L -0.318198052 0.106066017 L -0.338327913 0.098901872 L -0.357009003 0.091314214 L -0.374161326 0.083335535 L -0.389711432 0.075 L -0.403592734 0.066343304 L -0.41574579 0.057402515 L -0.426118558 0.04821592 L -0.434666622 0.038822857 L -0.441353376 0.029263548 L -0.446150188 0.019578929 L -0.449036515 0.009810469 L -0.45 0 L -0.449036515 -0.009810469 L -0.446150188 -0.019578929 L -0.441353376 -0.029263548 L -0.434666622 -0.038822857 L -0.426118558 -0.04821592 L -0.41574579 -0.057402515 L -0.403592734 -0.066343304 L -0.389711432 -0.075 L -0.374161326 -0.083335535 L -0.357009003 -0.091314214 L -0.338327913 -0.098901872 L -0.318198052 -0.106066017 L -0.296705617 -0.112775971 L -0.273942643 -0.119003001 L -0.250006605 -0.124720442 L -0.225 -0.129903811 L -0.199029911 -0.134530911 L -0.172207545 -0.13858193 L -0.144647759 -0.142039519 L -0.11646857 -0.144888874 L -0.087790645 -0.147117792 L -0.058736786 -0.148716729 L -0.029431408 -0.149678838 L 0 -0.15 L 0.029431408 -0.149678838 L 0.058736786 -0.148716729 L 0.087790645 -0.147117792 L 0.11646857 -0.144888874 L 0.144647759 -0.142039519 L 0.172207545 -0.13858193 L 0.199029911 -0.134530911 L 0.225 -0.129903811 L 0.250006605 -0.124720442 L 0.273942643 -0.119003001 L 0.296705617 -0.112775971 L 0.318198052 -0.106066017 L 0.338327913 -0.098901872 L 0.357009003 -0.091314214 L 0.374161326 -0.083335535 L 0.389711432 -0.075 L 0.403592734 -0.066343304 L 0.41574579 -0.057402515 L 0.426118558 -0.04821592 L 0.434666622 -0.038822857 L 0.441353376 -0.029263548 L 0.446150188 -0.019578929 L 0.449036515 -0.009810469 Z"/></clipPath><clipPath id="graph-radial-b097a998c0b31a0b8b6e-colour-radial-attachment-0-0-0"><path d="M 0.05 0.42415894 L 0.049039264 0.433913457 L 0.046193977 0.443293112 L 0.041573481 0.451937452 L 0.035355339 0.45951428 L 0.027778512 0.465732421 L 0.019134172 0.470352917 L 0.009754516 0.473198204 L 0 0.47415894 L -0.009754516 0.473198204 L -0.019134172 0.470352917 L -0.027778512 0.465732421 L -0.035355339 0.45951428 L -0.041573481 0.451937452 L -0.046193977 0.443293112 L -0.049039264 0.433913457 L -0.05 0.42415894 L -0.05 0.145615933 L -0.049039264 0.135861417 L -0.046193977 0.126481762 L -0.041573481 0.117837422 L -0.035355339 0.110260594 L -0.027778512 0.104042453 L -0.019134172 0.099421957 L -0.009754516 0.096576669 L 0 0.095615933 L 0.009754516 0.096576669 L 0.019134172 0.099421957 L 0.027778512 0.104042453 L 0.035355339 0.110260594 L 0.041573481 0.117837422 L 0.046193977 0.126481762 L 0.049039264 0.135861417 L 0.05 0.145615933 Z"/></clipPath><clipPath id="graph-radial-b097a998c0b31a0b8b6e-colour-radial-attachment-0-1-0"><path d="M 0.343569781 -0.363683466 L 0.351572456 -0.369343042 L 0.360525489 -0.373332626 L 0.370084822 -0.375498902 L 0.379883095 -0.375758619 L 0.389543765 -0.374101798 L 0.398695578 -0.370592109 L 0.406986835 -0.365364428 L 0.414098908 -0.358619651 L 0.419758484 -0.350616977 L 0.423748068 -0.341663943 L 0.425914344 -0.33210461 L 0.426174061 -0.322306337 L 0.424517241 -0.312645667 L 0.421007552 -0.303493854 L 0.41577987 -0.295202597 L 0.409035094 -0.288090524 L 0.189653218 -0.098100523 L 0.181650543 -0.092440947 L 0.172697509 -0.088451363 L 0.163138176 -0.086285088 L 0.153339904 -0.08602537 L 0.143679234 -0.087682191 L 0.134527421 -0.09119188 L 0.126236163 -0.096419561 L 0.11912409 -0.103164338 L 0.113464514 -0.111167012 L 0.10947493 -0.120120046 L 0.107308655 -0.129679379 L 0.107048937 -0.139477652 L 0.108705758 -0.149138322 L 0.112215447 -0.158290135 L 0.117443128 -0.166581392 L 0.124187905 -0.173693465 Z"/></clipPath><clipPath id="graph-radial-b097a998c0b31a0b8b6e-colour-radial-attachment-0-2-0"><path d="M -0.409035094 -0.288090524 L -0.41577987 -0.295202597 L -0.421007552 -0.303493854 L -0.424517241 -0.312645667 L -0.426174061 -0.322306337 L -0.425914344 -0.33210461 L -0.423748068 -0.341663943 L -0.419758484 -0.350616977 L -0.414098908 -0.358619651 L -0.406986835 -0.365364428 L -0.398695578 -0.370592109 L -0.389543765 -0.374101798 L -0.379883095 -0.375758619 L -0.370084822 -0.375498902 L -0.360525489 -0.373332626 L -0.351572456 -0.369343042 L -0.343569781 -0.363683466 L -0.124187905 -0.173693465 L -0.117443128 -0.166581392 L -0.112215447 -0.158290135 L -0.108705758 -0.149138322 L -0.107048937 -0.139477652 L -0.107308655 -0.129679379 L -0.10947493 -0.120120046 L -0.113464514 -0.111167012 L -0.11912409 -0.103164338 L -0.126236163 -0.096419561 L -0.134527421 -0.09119188 L -0.143679234 -0.087682191 L -0.153339904 -0.08602537 L -0.163138176 -0.086285088 L -0.172697509 -0.088451363 L -0.181650543 -0.092440947 L -0.189653218 -0.098100523 Z"/></clipPath></defs><g transform="translate(128 122.07772101515471) scale(179.90640475189082)" data-world-scale="179.90640475189082"><g clip-path="url(#graph-radial-b097a998c0b31a0b8b6e-colour-radial-body)"><path d="M -0.45 -0.15 L 0.45 -0.15 L 0.45 0.15 L -0.45 0.15 Z" fill="#269fa5"/></g><path d="M 0.45 0 L 0.449036515 0.009810469 L 0.446150188 0.019578929 L 0.441353376 0.029263548 L 0.434666622 0.038822857 L 0.426118558 0.04821592 L 0.41574579 0.057402515 L 0.403592734 0.066343304 L 0.389711432 0.075 L 0.374161326 0.083335535 L 0.357009003 0.091314214 L 0.338327913 0.098901872 L 0.318198052 0.106066017 L 0.296705617 0.112775971 L 0.273942643 0.119003001 L 0.250006605 0.124720442 L 0.225 0.129903811 L 0.199029911 0.134530911 L 0.172207545 0.13858193 L 0.144647759 0.142039519 L 0.11646857 0.144888874 L 0.087790645 0.147117792 L 0.058736786 0.148716729 L 0.029431408 0.149678838 L 0 0.15 L -0.029431408 0.149678838 L -0.058736786 0.148716729 L -0.087790645 0.147117792 L -0.11646857 0.144888874 L -0.144647759 0.142039519 L -0.172207545 0.13858193 L -0.199029911 0.134530911 L -0.225 0.129903811 L -0.250006605 0.124720442 L -0.273942643 0.119003001 L -0.296705617 0.112775971 L -0.318198052 0.106066017 L -0.338327913 0.098901872 L -0.357009003 0.091314214 L -0.374161326 0.083335535 L -0.389711432 0.075 L -0.403592734 0.066343304 L -0.41574579 0.057402515 L -0.426118558 0.04821592 L -0.434666622 0.038822857 L -0.441353376 0.029263548 L -0.446150188 0.019578929 L -0.449036515 0.009810469 L -0.45 0 L -0.449036515 -0.009810469 L -0.446150188 -0.019578929 L -0.441353376 -0.029263548 L -0.434666622 -0.038822857 L -0.426118558 -0.04821592 L -0.41574579 -0.057402515 L -0.403592734 -0.066343304 L -0.389711432 -0.075 L -0.374161326 -0.083335535 L -0.357009003 -0.091314214 L -0.338327913 -0.098901872 L -0.318198052 -0.106066017 L -0.296705617 -0.112775971 L -0.273942643 -0.119003001 L -0.250006605 -0.124720442 L -0.225 -0.129903811 L -0.199029911 -0.134530911 L -0.172207545 -0.13858193 L -0.144647759 -0.142039519 L -0.11646857 -0.144888874 L -0.087790645 -0.147117792 L -0.058736786 -0.148716729 L -0.029431408 -0.149678838 L 0 -0.15 L 0.029431408 -0.149678838 L 0.058736786 -0.148716729 L 0.087790645 -0.147117792 L 0.11646857 -0.144888874 L 0.144647759 -0.142039519 L 0.172207545 -0.13858193 L 0.199029911 -0.134530911 L 0.225 -0.129903811 L 0.250006605 -0.124720442 L 0.273942643 -0.119003001 L 0.296705617 -0.112775971 L 0.318198052 -0.106066017 L 0.338327913 -0.098901872 L 0.357009003 -0.091314214 L 0.374161326 -0.083335535 L 0.389711432 -0.075 L 0.403592734 -0.066343304 L 0.41574579 -0.057402515 L 0.426118558 -0.04821592 L 0.434666622 -0.038822857 L 0.441353376 -0.029263548 L 0.446150188 -0.019578929 L 0.449036515 -0.009810469 Z" fill="none" stroke="#48565a" stroke-width="0.0038909120604426004"/><g clip-path="url(#graph-radial-b097a998c0b31a0b8b6e-colour-radial-attachment-0-0-0)"><path d="M 0.05 0.095615933 L 0.05 0.47415894 L -0.05 0.47415894 L -0.05 0.095615933 Z" fill="#269fa5"/></g><path d="M 0.05 0.42415894 L 0.049039264 0.433913457 L 0.046193977 0.443293112 L 0.041573481 0.451937452 L 0.035355339 0.45951428 L 0.027778512 0.465732421 L 0.019134172 0.470352917 L 0.009754516 0.473198204 L 0 0.47415894 L -0.009754516 0.473198204 L -0.019134172 0.470352917 L -0.027778512 0.465732421 L -0.035355339 0.45951428 L -0.041573481 0.451937452 L -0.046193977 0.443293112 L -0.049039264 0.433913457 L -0.05 0.42415894 L -0.05 0.145615933 L -0.049039264 0.135861417 L -0.046193977 0.126481762 L -0.041573481 0.117837422 L -0.035355339 0.110260594 L -0.027778512 0.104042453 L -0.019134172 0.099421957 L -0.009754516 0.096576669 L 0 0.095615933 L 0.009754516 0.096576669 L 0.019134172 0.099421957 L 0.027778512 0.104042453 L 0.035355339 0.110260594 L 0.041573481 0.117837422 L 0.046193977 0.126481762 L 0.049039264 0.135861417 L 0.05 0.145615933 Z" fill="none" stroke="#48565a" stroke-width="0.0038909120604426004"/><g clip-path="url(#graph-radial-b097a998c0b31a0b8b6e-colour-radial-attachment-0-1-0)"><path d="M 0.086391434 -0.140960809 L 0.381366252 -0.396416122 L 0.446831565 -0.32082318 L 0.151856747 -0.065367867 Z" fill="#269fa5"/></g><path d="M 0.343569781 -0.363683466 L 0.351572456 -0.369343042 L 0.360525489 -0.373332626 L 0.370084822 -0.375498902 L 0.379883095 -0.375758619 L 0.389543765 -0.374101798 L 0.398695578 -0.370592109 L 0.406986835 -0.365364428 L 0.414098908 -0.358619651 L 0.419758484 -0.350616977 L 0.423748068 -0.341663943 L 0.425914344 -0.33210461 L 0.426174061 -0.322306337 L 0.424517241 -0.312645667 L 0.421007552 -0.303493854 L 0.41577987 -0.295202597 L 0.409035094 -0.288090524 L 0.189653218 -0.098100523 L 0.181650543 -0.092440947 L 0.172697509 -0.088451363 L 0.163138176 -0.086285088 L 0.153339904 -0.08602537 L 0.143679234 -0.087682191 L 0.134527421 -0.09119188 L 0.126236163 -0.096419561 L 0.11912409 -0.103164338 L 0.113464514 -0.111167012 L 0.10947493 -0.120120046 L 0.107308655 -0.129679379 L 0.107048937 -0.139477652 L 0.108705758 -0.149138322 L 0.112215447 -0.158290135 L 0.117443128 -0.166581392 L 0.124187905 -0.173693465 Z" fill="none" stroke="#48565a" stroke-width="0.0038909120604426004"/><g clip-path="url(#graph-radial-b097a998c0b31a0b8b6e-colour-radial-attachment-0-2-0)"><path d="M -0.151856747 -0.065367867 L -0.446831565 -0.32082318 L -0.381366252 -0.396416122 L -0.086391434 -0.140960809 Z" fill="#269fa5"/></g><path d="M -0.409035094 -0.288090524 L -0.41577987 -0.295202597 L -0.421007552 -0.303493854 L -0.424517241 -0.312645667 L -0.426174061 -0.322306337 L -0.425914344 -0.33210461 L -0.423748068 -0.341663943 L -0.419758484 -0.350616977 L -0.414098908 -0.358619651 L -0.406986835 -0.365364428 L -0.398695578 -0.370592109 L -0.389543765 -0.374101798 L -0.379883095 -0.375758619 L -0.370084822 -0.375498902 L -0.360525489 -0.373332626 L -0.351572456 -0.369343042 L -0.343569781 -0.363683466 L -0.124187905 -0.173693465 L -0.117443128 -0.166581392 L -0.112215447 -0.158290135 L -0.108705758 -0.149138322 L -0.107048937 -0.139477652 L -0.107308655 -0.129679379 L -0.10947493 -0.120120046 L -0.113464514 -0.111167012 L -0.11912409 -0.103164338 L -0.126236163 -0.096419561 L -0.134527421 -0.09119188 L -0.143679234 -0.087682191 L -0.153339904 -0.08602537 L -0.163138176 -0.086285088 L -0.172697509 -0.088451363 L -0.181650543 -0.092440947 L -0.189653218 -0.098100523 Z" fill="none" stroke="#48565a" stroke-width="0.0038909120604426004"/><circle cx="0" cy="0.145615933" r="0.007225979540821973" fill="none" stroke="#e8dfbe" stroke-width="0.0038909120604426004"/><circle cx="0.156920561" cy="-0.135896994" r="0.007225979540821973" fill="none" stroke="#e8dfbe" stroke-width="0.0038909120604426004"/><circle cx="-0.156920561" cy="-0.135896994" r="0.007225979540821973" fill="none" stroke="#e8dfbe" stroke-width="0.0038909120604426004"/></g></svg><svg x="256" y="0" xmlns="http://www.w3.org/2000/svg" width="256" height="256" viewBox="0 0 256 256"><title>Radial XYZ source projected along X into YZ; inspection overlay, not physical depth sorting</title><desc>Body first; contacts and root rings exposed for inspection. Neutral outline, texture and root ink are not inherited pigment. Silhouette mode is a diagnostic pigment override only.</desc><rect width="256" height="256" fill="#f7f5ee"/><defs><clipPath id="graph-radial-7784526b88463a90064f-colour-radial-body"><path d="M 0.45 0 L 0.449036515 0.022891095 L 0.446150188 0.045684167 L 0.441353376 0.068281613 L 0.434666622 0.090586666 L 0.426118558 0.112503813 L 0.41574579 0.133939201 L 0.403592734 0.154801042 L 0.389711432 0.175 L 0.374161326 0.194449582 L 0.357009003 0.2130665 L 0.338327913 0.230771035 L 0.318198052 0.247487373 L 0.296705617 0.263143933 L 0.273942643 0.277673669 L 0.250006605 0.291014364 L 0.225 0.303108891 L 0.199029911 0.31390546 L 0.172207545 0.323357836 L 0.144647759 0.331425545 L 0.11646857 0.338074039 L 0.087790645 0.343274848 L 0.058736786 0.347005701 L 0.029431408 0.349250623 L 0 0.35 L -0.029431408 0.349250623 L -0.058736786 0.347005701 L -0.087790645 0.343274848 L -0.11646857 0.338074039 L -0.144647759 0.331425545 L -0.172207545 0.323357836 L -0.199029911 0.31390546 L -0.225 0.303108891 L -0.250006605 0.291014364 L -0.273942643 0.277673669 L -0.296705617 0.263143933 L -0.318198052 0.247487373 L -0.338327913 0.230771035 L -0.357009003 0.2130665 L -0.374161326 0.194449582 L -0.389711432 0.175 L -0.403592734 0.154801042 L -0.41574579 0.133939201 L -0.426118558 0.112503813 L -0.434666622 0.090586666 L -0.441353376 0.068281613 L -0.446150188 0.045684167 L -0.449036515 0.022891095 L -0.45 0 L -0.449036515 -0.022891095 L -0.446150188 -0.045684167 L -0.441353376 -0.068281613 L -0.434666622 -0.090586666 L -0.426118558 -0.112503813 L -0.41574579 -0.133939201 L -0.403592734 -0.154801042 L -0.389711432 -0.175 L -0.374161326 -0.194449582 L -0.357009003 -0.2130665 L -0.338327913 -0.230771035 L -0.318198052 -0.247487373 L -0.296705617 -0.263143933 L -0.273942643 -0.277673669 L -0.250006605 -0.291014364 L -0.225 -0.303108891 L -0.199029911 -0.31390546 L -0.172207545 -0.323357836 L -0.144647759 -0.331425545 L -0.11646857 -0.338074039 L -0.087790645 -0.343274848 L -0.058736786 -0.347005701 L -0.029431408 -0.349250623 L 0 -0.35 L 0.029431408 -0.349250623 L 0.058736786 -0.347005701 L 0.087790645 -0.343274848 L 0.11646857 -0.338074039 L 0.144647759 -0.331425545 L 0.172207545 -0.323357836 L 0.199029911 -0.31390546 L 0.225 -0.303108891 L 0.250006605 -0.291014364 L 0.273942643 -0.277673669 L 0.296705617 -0.263143933 L 0.318198052 -0.247487373 L 0.338327913 -0.230771035 L 0.357009003 -0.2130665 L 0.374161326 -0.194449582 L 0.389711432 -0.175 L 0.403592734 -0.154801042 L 0.41574579 -0.133939201 L 0.426118558 -0.112503813 L 0.434666622 -0.090586666 L 0.441353376 -0.068281613 L 0.446150188 -0.045684167 L 0.449036515 -0.022891095 Z"/></clipPath><clipPath id="graph-radial-7784526b88463a90064f-colour-radial-attachment-0-0-0"><path d="M 0.05 0.583230813 L 0.049039264 0.592985329 L 0.046193977 0.602364985 L 0.041573481 0.611009325 L 0.035355339 0.618586152 L 0.027778512 0.624804294 L 0.019134172 0.62942479 L 0.009754516 0.632270077 L 0 0.633230813 L -0.009754516 0.632270077 L -0.019134172 0.62942479 L -0.027778512 0.624804294 L -0.035355339 0.618586152 L -0.041573481 0.611009325 L -0.046193977 0.602364985 L -0.049039264 0.592985329 L -0.05 0.583230813 L -0.05 0.339770511 L -0.049039264 0.330015995 L -0.046193977 0.320636339 L -0.041573481 0.311991999 L -0.035355339 0.304415172 L -0.027778512 0.29819703 L -0.019134172 0.293576534 L -0.009754516 0.290731247 L 0 0.289770511 L 0.009754516 0.290731247 L 0.019134172 0.293576534 L 0.027778512 0.29819703 L 0.035355339 0.304415172 L 0.041573481 0.311991999 L 0.046193977 0.320636339 L 0.049039264 0.330015995 L 0.05 0.339770511 Z"/></clipPath><clipPath id="graph-radial-7784526b88463a90064f-colour-radial-attachment-0-1-0"><path d="M 0.374699866 -0.54879609 L 0.381541144 -0.555815386 L 0.389620365 -0.561365141 L 0.39862705 -0.565232081 L 0.408215077 -0.567267602 L 0.418015982 -0.56739348 L 0.427653124 -0.565604877 L 0.436756151 -0.561970529 L 0.444975241 -0.556630101 L 0.451994537 -0.549788823 L 0.457544292 -0.541709602 L 0.461411232 -0.532702917 L 0.463446753 -0.52311489 L 0.46357263 -0.513313984 L 0.461784028 -0.503676843 L 0.458149679 -0.494573815 L 0.452809251 -0.486354726 L 0.269719311 -0.257323169 L 0.262878033 -0.250303873 L 0.254798811 -0.244754118 L 0.245792127 -0.240887178 L 0.2362041 -0.238851657 L 0.226403194 -0.238725779 L 0.216766053 -0.240514382 L 0.207663025 -0.24414873 L 0.199443936 -0.249489158 L 0.19242464 -0.256330436 L 0.186874885 -0.264409657 L 0.183007945 -0.273416342 L 0.180972424 -0.283004369 L 0.180846546 -0.292805274 L 0.182635149 -0.302442416 L 0.186269497 -0.311545444 L 0.191609925 -0.319764533 Z"/></clipPath><clipPath id="graph-radial-7784526b88463a90064f-colour-radial-attachment-0-2-0"><path d="M -0.452809251 -0.486354726 L -0.458149679 -0.494573815 L -0.461784028 -0.503676843 L -0.46357263 -0.513313984 L -0.463446753 -0.52311489 L -0.461411232 -0.532702917 L -0.457544292 -0.541709602 L -0.451994537 -0.549788823 L -0.444975241 -0.556630101 L -0.436756151 -0.561970529 L -0.427653124 -0.565604877 L -0.418015982 -0.56739348 L -0.408215077 -0.567267602 L -0.39862705 -0.565232081 L -0.389620365 -0.561365141 L -0.381541144 -0.555815386 L -0.374699866 -0.54879609 L -0.191609925 -0.319764533 L -0.186269497 -0.311545444 L -0.182635149 -0.302442416 L -0.180846546 -0.292805274 L -0.180972424 -0.283004369 L -0.183007945 -0.273416342 L -0.186874885 -0.264409657 L -0.19242464 -0.256330436 L -0.199443936 -0.249489158 L -0.207663025 -0.24414873 L -0.216766053 -0.240514382 L -0.226403194 -0.238725779 L -0.2362041 -0.238851657 L -0.245792127 -0.240887178 L -0.254798811 -0.244754118 L -0.262878033 -0.250303873 L -0.269719311 -0.257323169 Z"/></clipPath></defs><g transform="translate(128 122.07772101515471) scale(179.90640475189082)" data-world-scale="179.90640475189082"><g clip-path="url(#graph-radial-7784526b88463a90064f-colour-radial-body)"><path d="M -0.45 -0.35 L 0.45 -0.35 L 0.45 0.35 L -0.45 0.35 Z" fill="#269fa5"/></g><path d="M 0.45 0 L 0.449036515 0.022891095 L 0.446150188 0.045684167 L 0.441353376 0.068281613 L 0.434666622 0.090586666 L 0.426118558 0.112503813 L 0.41574579 0.133939201 L 0.403592734 0.154801042 L 0.389711432 0.175 L 0.374161326 0.194449582 L 0.357009003 0.2130665 L 0.338327913 0.230771035 L 0.318198052 0.247487373 L 0.296705617 0.263143933 L 0.273942643 0.277673669 L 0.250006605 0.291014364 L 0.225 0.303108891 L 0.199029911 0.31390546 L 0.172207545 0.323357836 L 0.144647759 0.331425545 L 0.11646857 0.338074039 L 0.087790645 0.343274848 L 0.058736786 0.347005701 L 0.029431408 0.349250623 L 0 0.35 L -0.029431408 0.349250623 L -0.058736786 0.347005701 L -0.087790645 0.343274848 L -0.11646857 0.338074039 L -0.144647759 0.331425545 L -0.172207545 0.323357836 L -0.199029911 0.31390546 L -0.225 0.303108891 L -0.250006605 0.291014364 L -0.273942643 0.277673669 L -0.296705617 0.263143933 L -0.318198052 0.247487373 L -0.338327913 0.230771035 L -0.357009003 0.2130665 L -0.374161326 0.194449582 L -0.389711432 0.175 L -0.403592734 0.154801042 L -0.41574579 0.133939201 L -0.426118558 0.112503813 L -0.434666622 0.090586666 L -0.441353376 0.068281613 L -0.446150188 0.045684167 L -0.449036515 0.022891095 L -0.45 0 L -0.449036515 -0.022891095 L -0.446150188 -0.045684167 L -0.441353376 -0.068281613 L -0.434666622 -0.090586666 L -0.426118558 -0.112503813 L -0.41574579 -0.133939201 L -0.403592734 -0.154801042 L -0.389711432 -0.175 L -0.374161326 -0.194449582 L -0.357009003 -0.2130665 L -0.338327913 -0.230771035 L -0.318198052 -0.247487373 L -0.296705617 -0.263143933 L -0.273942643 -0.277673669 L -0.250006605 -0.291014364 L -0.225 -0.303108891 L -0.199029911 -0.31390546 L -0.172207545 -0.323357836 L -0.144647759 -0.331425545 L -0.11646857 -0.338074039 L -0.087790645 -0.343274848 L -0.058736786 -0.347005701 L -0.029431408 -0.349250623 L 0 -0.35 L 0.029431408 -0.349250623 L 0.058736786 -0.347005701 L 0.087790645 -0.343274848 L 0.11646857 -0.338074039 L 0.144647759 -0.331425545 L 0.172207545 -0.323357836 L 0.199029911 -0.31390546 L 0.225 -0.303108891 L 0.250006605 -0.291014364 L 0.273942643 -0.277673669 L 0.296705617 -0.263143933 L 0.318198052 -0.247487373 L 0.338327913 -0.230771035 L 0.357009003 -0.2130665 L 0.374161326 -0.194449582 L 0.389711432 -0.175 L 0.403592734 -0.154801042 L 0.41574579 -0.133939201 L 0.426118558 -0.112503813 L 0.434666622 -0.090586666 L 0.441353376 -0.068281613 L 0.446150188 -0.045684167 L 0.449036515 -0.022891095 Z" fill="none" stroke="#48565a" stroke-width="0.0038909120604426004"/><g clip-path="url(#graph-radial-7784526b88463a90064f-colour-radial-attachment-0-0-0)"><path d="M 0.05 0.289770511 L 0.05 0.633230813 L -0.05 0.633230813 L -0.05 0.289770511 Z" fill="#269fa5"/></g><path d="M 0.05 0.583230813 L 0.049039264 0.592985329 L 0.046193977 0.602364985 L 0.041573481 0.611009325 L 0.035355339 0.618586152 L 0.027778512 0.624804294 L 0.019134172 0.62942479 L 0.009754516 0.632270077 L 0 0.633230813 L -0.009754516 0.632270077 L -0.019134172 0.62942479 L -0.027778512 0.624804294 L -0.035355339 0.618586152 L -0.041573481 0.611009325 L -0.046193977 0.602364985 L -0.049039264 0.592985329 L -0.05 0.583230813 L -0.05 0.339770511 L -0.049039264 0.330015995 L -0.046193977 0.320636339 L -0.041573481 0.311991999 L -0.035355339 0.304415172 L -0.027778512 0.29819703 L -0.019134172 0.293576534 L -0.009754516 0.290731247 L 0 0.289770511 L 0.009754516 0.290731247 L 0.019134172 0.293576534 L 0.027778512 0.29819703 L 0.035355339 0.304415172 L 0.041573481 0.311991999 L 0.046193977 0.320636339 L 0.049039264 0.330015995 L 0.05 0.339770511 Z" fill="none" stroke="#48565a" stroke-width="0.0038909120604426004"/><g clip-path="url(#graph-radial-7784526b88463a90064f-colour-radial-attachment-0-1-0)"><path d="M 0.160389243 -0.28070984 L 0.405920548 -0.587850783 L 0.484029933 -0.525409419 L 0.238498629 -0.218268476 Z" fill="#269fa5"/></g><path d="M 0.374699866 -0.54879609 L 0.381541144 -0.555815386 L 0.389620365 -0.561365141 L 0.39862705 -0.565232081 L 0.408215077 -0.567267602 L 0.418015982 -0.56739348 L 0.427653124 -0.565604877 L 0.436756151 -0.561970529 L 0.444975241 -0.556630101 L 0.451994537 -0.549788823 L 0.457544292 -0.541709602 L 0.461411232 -0.532702917 L 0.463446753 -0.52311489 L 0.46357263 -0.513313984 L 0.461784028 -0.503676843 L 0.458149679 -0.494573815 L 0.452809251 -0.486354726 L 0.269719311 -0.257323169 L 0.262878033 -0.250303873 L 0.254798811 -0.244754118 L 0.245792127 -0.240887178 L 0.2362041 -0.238851657 L 0.226403194 -0.238725779 L 0.216766053 -0.240514382 L 0.207663025 -0.24414873 L 0.199443936 -0.249489158 L 0.19242464 -0.256330436 L 0.186874885 -0.264409657 L 0.183007945 -0.273416342 L 0.180972424 -0.283004369 L 0.180846546 -0.292805274 L 0.182635149 -0.302442416 L 0.186269497 -0.311545444 L 0.191609925 -0.319764533 Z" fill="none" stroke="#48565a" stroke-width="0.0038909120604426004"/><g clip-path="url(#graph-radial-7784526b88463a90064f-colour-radial-attachment-0-2-0)"><path d="M -0.238498629 -0.218268476 L -0.484029933 -0.525409419 L -0.405920548 -0.587850783 L -0.160389243 -0.28070984 Z" fill="#269fa5"/></g><path d="M -0.452809251 -0.486354726 L -0.458149679 -0.494573815 L -0.461784028 -0.503676843 L -0.46357263 -0.513313984 L -0.463446753 -0.52311489 L -0.461411232 -0.532702917 L -0.457544292 -0.541709602 L -0.451994537 -0.549788823 L -0.444975241 -0.556630101 L -0.436756151 -0.561970529 L -0.427653124 -0.565604877 L -0.418015982 -0.56739348 L -0.408215077 -0.567267602 L -0.39862705 -0.565232081 L -0.389620365 -0.561365141 L -0.381541144 -0.555815386 L -0.374699866 -0.54879609 L -0.191609925 -0.319764533 L -0.186269497 -0.311545444 L -0.182635149 -0.302442416 L -0.180846546 -0.292805274 L -0.180972424 -0.283004369 L -0.183007945 -0.273416342 L -0.186874885 -0.264409657 L -0.19242464 -0.256330436 L -0.199443936 -0.249489158 L -0.207663025 -0.24414873 L -0.216766053 -0.240514382 L -0.226403194 -0.238725779 L -0.2362041 -0.238851657 L -0.245792127 -0.240887178 L -0.254798811 -0.244754118 L -0.262878033 -0.250303873 L -0.269719311 -0.257323169 Z" fill="none" stroke="#48565a" stroke-width="0.0038909120604426004"/><circle cx="0" cy="0.339770511" r="0.007225979540821973" fill="none" stroke="#e8dfbe" stroke-width="0.0038909120604426004"/><circle cx="0.230664618" cy="-0.288543851" r="0.007225979540821973" fill="none" stroke="#e8dfbe" stroke-width="0.0038909120604426004"/><circle cx="-0.230664618" cy="-0.288543851" r="0.007225979540821973" fill="none" stroke="#e8dfbe" stroke-width="0.0038909120604426004"/></g></svg><svg x="512" y="0" xmlns="http://www.w3.org/2000/svg" width="256" height="256" viewBox="0 0 256 256"><title>Radial XYZ source projected along X into YZ; inspection overlay, not physical depth sorting</title><desc>Body first; contacts and root rings exposed for inspection. Neutral outline, texture and root ink are not inherited pigment. Silhouette mode is a diagnostic pigment override only.</desc><rect width="256" height="256" fill="#f7f5ee"/><defs><clipPath id="graph-radial-6e1800db60bc6612f843-colour-radial-body"><path d="M 0.45 0 L 0.449036515 0.009810469 L 0.446150188 0.019578929 L 0.441353376 0.029263548 L 0.434666622 0.038822857 L 0.426118558 0.04821592 L 0.41574579 0.057402515 L 0.403592734 0.066343304 L 0.389711432 0.075 L 0.374161326 0.083335535 L 0.357009003 0.091314214 L 0.338327913 0.098901872 L 0.318198052 0.106066017 L 0.296705617 0.112775971 L 0.273942643 0.119003001 L 0.250006605 0.124720442 L 0.225 0.129903811 L 0.199029911 0.134530911 L 0.172207545 0.13858193 L 0.144647759 0.142039519 L 0.11646857 0.144888874 L 0.087790645 0.147117792 L 0.058736786 0.148716729 L 0.029431408 0.149678838 L 0 0.15 L -0.029431408 0.149678838 L -0.058736786 0.148716729 L -0.087790645 0.147117792 L -0.11646857 0.144888874 L -0.144647759 0.142039519 L -0.172207545 0.13858193 L -0.199029911 0.134530911 L -0.225 0.129903811 L -0.250006605 0.124720442 L -0.273942643 0.119003001 L -0.296705617 0.112775971 L -0.318198052 0.106066017 L -0.338327913 0.098901872 L -0.357009003 0.091314214 L -0.374161326 0.083335535 L -0.389711432 0.075 L -0.403592734 0.066343304 L -0.41574579 0.057402515 L -0.426118558 0.04821592 L -0.434666622 0.038822857 L -0.441353376 0.029263548 L -0.446150188 0.019578929 L -0.449036515 0.009810469 L -0.45 0 L -0.449036515 -0.009810469 L -0.446150188 -0.019578929 L -0.441353376 -0.029263548 L -0.434666622 -0.038822857 L -0.426118558 -0.04821592 L -0.41574579 -0.057402515 L -0.403592734 -0.066343304 L -0.389711432 -0.075 L -0.374161326 -0.083335535 L -0.357009003 -0.091314214 L -0.338327913 -0.098901872 L -0.318198052 -0.106066017 L -0.296705617 -0.112775971 L -0.273942643 -0.119003001 L -0.250006605 -0.124720442 L -0.225 -0.129903811 L -0.199029911 -0.134530911 L -0.172207545 -0.13858193 L -0.144647759 -0.142039519 L -0.11646857 -0.144888874 L -0.087790645 -0.147117792 L -0.058736786 -0.148716729 L -0.029431408 -0.149678838 L 0 -0.15 L 0.029431408 -0.149678838 L 0.058736786 -0.148716729 L 0.087790645 -0.147117792 L 0.11646857 -0.144888874 L 0.144647759 -0.142039519 L 0.172207545 -0.13858193 L 0.199029911 -0.134530911 L 0.225 -0.129903811 L 0.250006605 -0.124720442 L 0.273942643 -0.119003001 L 0.296705617 -0.112775971 L 0.318198052 -0.106066017 L 0.338327913 -0.098901872 L 0.357009003 -0.091314214 L 0.374161326 -0.083335535 L 0.389711432 -0.075 L 0.403592734 -0.066343304 L 0.41574579 -0.057402515 L 0.426118558 -0.04821592 L 0.434666622 -0.038822857 L 0.441353376 -0.029263548 L 0.446150188 -0.019578929 L 0.449036515 -0.009810469 Z"/></clipPath><clipPath id="graph-radial-6e1800db60bc6612f843-colour-radial-attachment-0-0-0"><path d="M 0.05 0.42415894 L 0.049039264 0.433913457 L 0.046193977 0.443293112 L 0.041573481 0.451937452 L 0.035355339 0.45951428 L 0.027778512 0.465732421 L 0.019134172 0.470352917 L 0.009754516 0.473198204 L 0 0.47415894 L -0.009754516 0.473198204 L -0.019134172 0.470352917 L -0.027778512 0.465732421 L -0.035355339 0.45951428 L -0.041573481 0.451937452 L -0.046193977 0.443293112 L -0.049039264 0.433913457 L -0.05 0.42415894 L -0.05 0.145615933 L -0.049039264 0.135861417 L -0.046193977 0.126481762 L -0.041573481 0.117837422 L -0.035355339 0.110260594 L -0.027778512 0.104042453 L -0.019134172 0.099421957 L -0.009754516 0.096576669 L 0 0.095615933 L 0.009754516 0.096576669 L 0.019134172 0.099421957 L 0.027778512 0.104042453 L 0.035355339 0.110260594 L 0.041573481 0.117837422 L 0.046193977 0.126481762 L 0.049039264 0.135861417 L 0.05 0.145615933 Z"/></clipPath><clipPath id="graph-radial-6e1800db60bc6612f843-colour-radial-attachment-0-1-0"><path d="M 0.343569781 -0.363683466 L 0.351572456 -0.369343042 L 0.360525489 -0.373332626 L 0.370084822 -0.375498902 L 0.379883095 -0.375758619 L 0.389543765 -0.374101798 L 0.398695578 -0.370592109 L 0.406986835 -0.365364428 L 0.414098908 -0.358619651 L 0.419758484 -0.350616977 L 0.423748068 -0.341663943 L 0.425914344 -0.33210461 L 0.426174061 -0.322306337 L 0.424517241 -0.312645667 L 0.421007552 -0.303493854 L 0.41577987 -0.295202597 L 0.409035094 -0.288090524 L 0.189653218 -0.098100523 L 0.181650543 -0.092440947 L 0.172697509 -0.088451363 L 0.163138176 -0.086285088 L 0.153339904 -0.08602537 L 0.143679234 -0.087682191 L 0.134527421 -0.09119188 L 0.126236163 -0.096419561 L 0.11912409 -0.103164338 L 0.113464514 -0.111167012 L 0.10947493 -0.120120046 L 0.107308655 -0.129679379 L 0.107048937 -0.139477652 L 0.108705758 -0.149138322 L 0.112215447 -0.158290135 L 0.117443128 -0.166581392 L 0.124187905 -0.173693465 Z"/></clipPath><clipPath id="graph-radial-6e1800db60bc6612f843-colour-radial-attachment-0-2-0"><path d="M -0.409035094 -0.288090524 L -0.41577987 -0.295202597 L -0.421007552 -0.303493854 L -0.424517241 -0.312645667 L -0.426174061 -0.322306337 L -0.425914344 -0.33210461 L -0.423748068 -0.341663943 L -0.419758484 -0.350616977 L -0.414098908 -0.358619651 L -0.406986835 -0.365364428 L -0.398695578 -0.370592109 L -0.389543765 -0.374101798 L -0.379883095 -0.375758619 L -0.370084822 -0.375498902 L -0.360525489 -0.373332626 L -0.351572456 -0.369343042 L -0.343569781 -0.363683466 L -0.124187905 -0.173693465 L -0.117443128 -0.166581392 L -0.112215447 -0.158290135 L -0.108705758 -0.149138322 L -0.107048937 -0.139477652 L -0.107308655 -0.129679379 L -0.10947493 -0.120120046 L -0.113464514 -0.111167012 L -0.11912409 -0.103164338 L -0.126236163 -0.096419561 L -0.134527421 -0.09119188 L -0.143679234 -0.087682191 L -0.153339904 -0.08602537 L -0.163138176 -0.086285088 L -0.172697509 -0.088451363 L -0.181650543 -0.092440947 L -0.189653218 -0.098100523 Z"/></clipPath></defs><g transform="translate(128 122.07772101515471) scale(179.90640475189082)" data-world-scale="179.90640475189082"><g clip-path="url(#graph-radial-6e1800db60bc6612f843-colour-radial-body)"><path d="M -0.45 -0.15 L 0.45 -0.15 L 0.45 0.15 L -0.45 0.15 Z" fill="#269fa5"/></g><path d="M 0.45 0 L 0.449036515 0.009810469 L 0.446150188 0.019578929 L 0.441353376 0.029263548 L 0.434666622 0.038822857 L 0.426118558 0.04821592 L 0.41574579 0.057402515 L 0.403592734 0.066343304 L 0.389711432 0.075 L 0.374161326 0.083335535 L 0.357009003 0.091314214 L 0.338327913 0.098901872 L 0.318198052 0.106066017 L 0.296705617 0.112775971 L 0.273942643 0.119003001 L 0.250006605 0.124720442 L 0.225 0.129903811 L 0.199029911 0.134530911 L 0.172207545 0.13858193 L 0.144647759 0.142039519 L 0.11646857 0.144888874 L 0.087790645 0.147117792 L 0.058736786 0.148716729 L 0.029431408 0.149678838 L 0 0.15 L -0.029431408 0.149678838 L -0.058736786 0.148716729 L -0.087790645 0.147117792 L -0.11646857 0.144888874 L -0.144647759 0.142039519 L -0.172207545 0.13858193 L -0.199029911 0.134530911 L -0.225 0.129903811 L -0.250006605 0.124720442 L -0.273942643 0.119003001 L -0.296705617 0.112775971 L -0.318198052 0.106066017 L -0.338327913 0.098901872 L -0.357009003 0.091314214 L -0.374161326 0.083335535 L -0.389711432 0.075 L -0.403592734 0.066343304 L -0.41574579 0.057402515 L -0.426118558 0.04821592 L -0.434666622 0.038822857 L -0.441353376 0.029263548 L -0.446150188 0.019578929 L -0.449036515 0.009810469 L -0.45 0 L -0.449036515 -0.009810469 L -0.446150188 -0.019578929 L -0.441353376 -0.029263548 L -0.434666622 -0.038822857 L -0.426118558 -0.04821592 L -0.41574579 -0.057402515 L -0.403592734 -0.066343304 L -0.389711432 -0.075 L -0.374161326 -0.083335535 L -0.357009003 -0.091314214 L -0.338327913 -0.098901872 L -0.318198052 -0.106066017 L -0.296705617 -0.112775971 L -0.273942643 -0.119003001 L -0.250006605 -0.124720442 L -0.225 -0.129903811 L -0.199029911 -0.134530911 L -0.172207545 -0.13858193 L -0.144647759 -0.142039519 L -0.11646857 -0.144888874 L -0.087790645 -0.147117792 L -0.058736786 -0.148716729 L -0.029431408 -0.149678838 L 0 -0.15 L 0.029431408 -0.149678838 L 0.058736786 -0.148716729 L 0.087790645 -0.147117792 L 0.11646857 -0.144888874 L 0.144647759 -0.142039519 L 0.172207545 -0.13858193 L 0.199029911 -0.134530911 L 0.225 -0.129903811 L 0.250006605 -0.124720442 L 0.273942643 -0.119003001 L 0.296705617 -0.112775971 L 0.318198052 -0.106066017 L 0.338327913 -0.098901872 L 0.357009003 -0.091314214 L 0.374161326 -0.083335535 L 0.389711432 -0.075 L 0.403592734 -0.066343304 L 0.41574579 -0.057402515 L 0.426118558 -0.04821592 L 0.434666622 -0.038822857 L 0.441353376 -0.029263548 L 0.446150188 -0.019578929 L 0.449036515 -0.009810469 Z" fill="none" stroke="#48565a" stroke-width="0.0038909120604426004"/><g clip-path="url(#graph-radial-6e1800db60bc6612f843-colour-radial-attachment-0-0-0)"><path d="M 0.05 0.095615933 L 0.05 0.47415894 L -0.05 0.47415894 L -0.05 0.095615933 Z" fill="#269fa5"/></g><path d="M 0.05 0.42415894 L 0.049039264 0.433913457 L 0.046193977 0.443293112 L 0.041573481 0.451937452 L 0.035355339 0.45951428 L 0.027778512 0.465732421 L 0.019134172 0.470352917 L 0.009754516 0.473198204 L 0 0.47415894 L -0.009754516 0.473198204 L -0.019134172 0.470352917 L -0.027778512 0.465732421 L -0.035355339 0.45951428 L -0.041573481 0.451937452 L -0.046193977 0.443293112 L -0.049039264 0.433913457 L -0.05 0.42415894 L -0.05 0.145615933 L -0.049039264 0.135861417 L -0.046193977 0.126481762 L -0.041573481 0.117837422 L -0.035355339 0.110260594 L -0.027778512 0.104042453 L -0.019134172 0.099421957 L -0.009754516 0.096576669 L 0 0.095615933 L 0.009754516 0.096576669 L 0.019134172 0.099421957 L 0.027778512 0.104042453 L 0.035355339 0.110260594 L 0.041573481 0.117837422 L 0.046193977 0.126481762 L 0.049039264 0.135861417 L 0.05 0.145615933 Z" fill="none" stroke="#48565a" stroke-width="0.0038909120604426004"/><g clip-path="url(#graph-radial-6e1800db60bc6612f843-colour-radial-attachment-0-1-0)"><path d="M 0.086391434 -0.140960809 L 0.381366252 -0.396416122 L 0.446831565 -0.32082318 L 0.151856747 -0.065367867 Z" fill="#269fa5"/></g><path d="M 0.343569781 -0.363683466 L 0.351572456 -0.369343042 L 0.360525489 -0.373332626 L 0.370084822 -0.375498902 L 0.379883095 -0.375758619 L 0.389543765 -0.374101798 L 0.398695578 -0.370592109 L 0.406986835 -0.365364428 L 0.414098908 -0.358619651 L 0.419758484 -0.350616977 L 0.423748068 -0.341663943 L 0.425914344 -0.33210461 L 0.426174061 -0.322306337 L 0.424517241 -0.312645667 L 0.421007552 -0.303493854 L 0.41577987 -0.295202597 L 0.409035094 -0.288090524 L 0.189653218 -0.098100523 L 0.181650543 -0.092440947 L 0.172697509 -0.088451363 L 0.163138176 -0.086285088 L 0.153339904 -0.08602537 L 0.143679234 -0.087682191 L 0.134527421 -0.09119188 L 0.126236163 -0.096419561 L 0.11912409 -0.103164338 L 0.113464514 -0.111167012 L 0.10947493 -0.120120046 L 0.107308655 -0.129679379 L 0.107048937 -0.139477652 L 0.108705758 -0.149138322 L 0.112215447 -0.158290135 L 0.117443128 -0.166581392 L 0.124187905 -0.173693465 Z" fill="none" stroke="#48565a" stroke-width="0.0038909120604426004"/><g clip-path="url(#graph-radial-6e1800db60bc6612f843-colour-radial-attachment-0-2-0)"><path d="M -0.151856747 -0.065367867 L -0.446831565 -0.32082318 L -0.381366252 -0.396416122 L -0.086391434 -0.140960809 Z" fill="#269fa5"/></g><path d="M -0.409035094 -0.288090524 L -0.41577987 -0.295202597 L -0.421007552 -0.303493854 L -0.424517241 -0.312645667 L -0.426174061 -0.322306337 L -0.425914344 -0.33210461 L -0.423748068 -0.341663943 L -0.419758484 -0.350616977 L -0.414098908 -0.358619651 L -0.406986835 -0.365364428 L -0.398695578 -0.370592109 L -0.389543765 -0.374101798 L -0.379883095 -0.375758619 L -0.370084822 -0.375498902 L -0.360525489 -0.373332626 L -0.351572456 -0.369343042 L -0.343569781 -0.363683466 L -0.124187905 -0.173693465 L -0.117443128 -0.166581392 L -0.112215447 -0.158290135 L -0.108705758 -0.149138322 L -0.107048937 -0.139477652 L -0.107308655 -0.129679379 L -0.10947493 -0.120120046 L -0.113464514 -0.111167012 L -0.11912409 -0.103164338 L -0.126236163 -0.096419561 L -0.134527421 -0.09119188 L -0.143679234 -0.087682191 L -0.153339904 -0.08602537 L -0.163138176 -0.086285088 L -0.172697509 -0.088451363 L -0.181650543 -0.092440947 L -0.189653218 -0.098100523 Z" fill="none" stroke="#48565a" stroke-width="0.0038909120604426004"/><circle cx="0" cy="0.145615933" r="0.007225979540821973" fill="none" stroke="#e8dfbe" stroke-width="0.0038909120604426004"/><circle cx="0.156920561" cy="-0.135896994" r="0.007225979540821973" fill="none" stroke="#e8dfbe" stroke-width="0.0038909120604426004"/><circle cx="-0.156920561" cy="-0.135896994" r="0.007225979540821973" fill="none" stroke="#e8dfbe" stroke-width="0.0038909120604426004"/></g></svg><svg x="0" y="256" xmlns="http://www.w3.org/2000/svg" width="256" height="256" viewBox="0 0 256 256"><title>Radial XYZ source projected along X into YZ; inspection overlay, not physical depth sorting</title><desc>Body first; contacts and root rings exposed for inspection. Neutral outline, texture and root ink are not inherited pigment. Silhouette mode is a diagnostic pigment override only.</desc><rect width="256" height="256" fill="#f7f5ee"/><defs><clipPath id="graph-radial-b097a998c0b31a0b8b6e-silhouette-radial-body"><path d="M 0.45 0 L 0.449036515 0.009810469 L 0.446150188 0.019578929 L 0.441353376 0.029263548 L 0.434666622 0.038822857 L 0.426118558 0.04821592 L 0.41574579 0.057402515 L 0.403592734 0.066343304 L 0.389711432 0.075 L 0.374161326 0.083335535 L 0.357009003 0.091314214 L 0.338327913 0.098901872 L 0.318198052 0.106066017 L 0.296705617 0.112775971 L 0.273942643 0.119003001 L 0.250006605 0.124720442 L 0.225 0.129903811 L 0.199029911 0.134530911 L 0.172207545 0.13858193 L 0.144647759 0.142039519 L 0.11646857 0.144888874 L 0.087790645 0.147117792 L 0.058736786 0.148716729 L 0.029431408 0.149678838 L 0 0.15 L -0.029431408 0.149678838 L -0.058736786 0.148716729 L -0.087790645 0.147117792 L -0.11646857 0.144888874 L -0.144647759 0.142039519 L -0.172207545 0.13858193 L -0.199029911 0.134530911 L -0.225 0.129903811 L -0.250006605 0.124720442 L -0.273942643 0.119003001 L -0.296705617 0.112775971 L -0.318198052 0.106066017 L -0.338327913 0.098901872 L -0.357009003 0.091314214 L -0.374161326 0.083335535 L -0.389711432 0.075 L -0.403592734 0.066343304 L -0.41574579 0.057402515 L -0.426118558 0.04821592 L -0.434666622 0.038822857 L -0.441353376 0.029263548 L -0.446150188 0.019578929 L -0.449036515 0.009810469 L -0.45 0 L -0.449036515 -0.009810469 L -0.446150188 -0.019578929 L -0.441353376 -0.029263548 L -0.434666622 -0.038822857 L -0.426118558 -0.04821592 L -0.41574579 -0.057402515 L -0.403592734 -0.066343304 L -0.389711432 -0.075 L -0.374161326 -0.083335535 L -0.357009003 -0.091314214 L -0.338327913 -0.098901872 L -0.318198052 -0.106066017 L -0.296705617 -0.112775971 L -0.273942643 -0.119003001 L -0.250006605 -0.124720442 L -0.225 -0.129903811 L -0.199029911 -0.134530911 L -0.172207545 -0.13858193 L -0.144647759 -0.142039519 L -0.11646857 -0.144888874 L -0.087790645 -0.147117792 L -0.058736786 -0.148716729 L -0.029431408 -0.149678838 L 0 -0.15 L 0.029431408 -0.149678838 L 0.058736786 -0.148716729 L 0.087790645 -0.147117792 L 0.11646857 -0.144888874 L 0.144647759 -0.142039519 L 0.172207545 -0.13858193 L 0.199029911 -0.134530911 L 0.225 -0.129903811 L 0.250006605 -0.124720442 L 0.273942643 -0.119003001 L 0.296705617 -0.112775971 L 0.318198052 -0.106066017 L 0.338327913 -0.098901872 L 0.357009003 -0.091314214 L 0.374161326 -0.083335535 L 0.389711432 -0.075 L 0.403592734 -0.066343304 L 0.41574579 -0.057402515 L 0.426118558 -0.04821592 L 0.434666622 -0.038822857 L 0.441353376 -0.029263548 L 0.446150188 -0.019578929 L 0.449036515 -0.009810469 Z"/></clipPath><clipPath id="graph-radial-b097a998c0b31a0b8b6e-silhouette-radial-attachment-0-0-0"><path d="M 0.05 0.42415894 L 0.049039264 0.433913457 L 0.046193977 0.443293112 L 0.041573481 0.451937452 L 0.035355339 0.45951428 L 0.027778512 0.465732421 L 0.019134172 0.470352917 L 0.009754516 0.473198204 L 0 0.47415894 L -0.009754516 0.473198204 L -0.019134172 0.470352917 L -0.027778512 0.465732421 L -0.035355339 0.45951428 L -0.041573481 0.451937452 L -0.046193977 0.443293112 L -0.049039264 0.433913457 L -0.05 0.42415894 L -0.05 0.145615933 L -0.049039264 0.135861417 L -0.046193977 0.126481762 L -0.041573481 0.117837422 L -0.035355339 0.110260594 L -0.027778512 0.104042453 L -0.019134172 0.099421957 L -0.009754516 0.096576669 L 0 0.095615933 L 0.009754516 0.096576669 L 0.019134172 0.099421957 L 0.027778512 0.104042453 L 0.035355339 0.110260594 L 0.041573481 0.117837422 L 0.046193977 0.126481762 L 0.049039264 0.135861417 L 0.05 0.145615933 Z"/></clipPath><clipPath id="graph-radial-b097a998c0b31a0b8b6e-silhouette-radial-attachment-0-1-0"><path d="M 0.343569781 -0.363683466 L 0.351572456 -0.369343042 L 0.360525489 -0.373332626 L 0.370084822 -0.375498902 L 0.379883095 -0.375758619 L 0.389543765 -0.374101798 L 0.398695578 -0.370592109 L 0.406986835 -0.365364428 L 0.414098908 -0.358619651 L 0.419758484 -0.350616977 L 0.423748068 -0.341663943 L 0.425914344 -0.33210461 L 0.426174061 -0.322306337 L 0.424517241 -0.312645667 L 0.421007552 -0.303493854 L 0.41577987 -0.295202597 L 0.409035094 -0.288090524 L 0.189653218 -0.098100523 L 0.181650543 -0.092440947 L 0.172697509 -0.088451363 L 0.163138176 -0.086285088 L 0.153339904 -0.08602537 L 0.143679234 -0.087682191 L 0.134527421 -0.09119188 L 0.126236163 -0.096419561 L 0.11912409 -0.103164338 L 0.113464514 -0.111167012 L 0.10947493 -0.120120046 L 0.107308655 -0.129679379 L 0.107048937 -0.139477652 L 0.108705758 -0.149138322 L 0.112215447 -0.158290135 L 0.117443128 -0.166581392 L 0.124187905 -0.173693465 Z"/></clipPath><clipPath id="graph-radial-b097a998c0b31a0b8b6e-silhouette-radial-attachment-0-2-0"><path d="M -0.409035094 -0.288090524 L -0.41577987 -0.295202597 L -0.421007552 -0.303493854 L -0.424517241 -0.312645667 L -0.426174061 -0.322306337 L -0.425914344 -0.33210461 L -0.423748068 -0.341663943 L -0.419758484 -0.350616977 L -0.414098908 -0.358619651 L -0.406986835 -0.365364428 L -0.398695578 -0.370592109 L -0.389543765 -0.374101798 L -0.379883095 -0.375758619 L -0.370084822 -0.375498902 L -0.360525489 -0.373332626 L -0.351572456 -0.369343042 L -0.343569781 -0.363683466 L -0.124187905 -0.173693465 L -0.117443128 -0.166581392 L -0.112215447 -0.158290135 L -0.108705758 -0.149138322 L -0.107048937 -0.139477652 L -0.107308655 -0.129679379 L -0.10947493 -0.120120046 L -0.113464514 -0.111167012 L -0.11912409 -0.103164338 L -0.126236163 -0.096419561 L -0.134527421 -0.09119188 L -0.143679234 -0.087682191 L -0.153339904 -0.08602537 L -0.163138176 -0.086285088 L -0.172697509 -0.088451363 L -0.181650543 -0.092440947 L -0.189653218 -0.098100523 Z"/></clipPath></defs><g transform="translate(128 122.07772101515471) scale(179.90640475189082)" data-world-scale="179.90640475189082"><g clip-path="url(#graph-radial-b097a998c0b31a0b8b6e-silhouette-radial-body)"><path d="M -0.45 -0.15 L 0.45 -0.15 L 0.45 0.15 L -0.45 0.15 Z" fill="#20282b"/></g><g clip-path="url(#graph-radial-b097a998c0b31a0b8b6e-silhouette-radial-attachment-0-0-0)"><path d="M 0.05 0.095615933 L 0.05 0.47415894 L -0.05 0.47415894 L -0.05 0.095615933 Z" fill="#20282b"/></g><g clip-path="url(#graph-radial-b097a998c0b31a0b8b6e-silhouette-radial-attachment-0-1-0)"><path d="M 0.086391434 -0.140960809 L 0.381366252 -0.396416122 L 0.446831565 -0.32082318 L 0.151856747 -0.065367867 Z" fill="#20282b"/></g><g clip-path="url(#graph-radial-b097a998c0b31a0b8b6e-silhouette-radial-attachment-0-2-0)"><path d="M -0.151856747 -0.065367867 L -0.446831565 -0.32082318 L -0.381366252 -0.396416122 L -0.086391434 -0.140960809 Z" fill="#20282b"/></g></g></svg><svg x="256" y="256" xmlns="http://www.w3.org/2000/svg" width="256" height="256" viewBox="0 0 256 256"><title>Radial XYZ source projected along X into YZ; inspection overlay, not physical depth sorting</title><desc>Body first; contacts and root rings exposed for inspection. Neutral outline, texture and root ink are not inherited pigment. Silhouette mode is a diagnostic pigment override only.</desc><rect width="256" height="256" fill="#f7f5ee"/><defs><clipPath id="graph-radial-7784526b88463a90064f-silhouette-radial-body"><path d="M 0.45 0 L 0.449036515 0.022891095 L 0.446150188 0.045684167 L 0.441353376 0.068281613 L 0.434666622 0.090586666 L 0.426118558 0.112503813 L 0.41574579 0.133939201 L 0.403592734 0.154801042 L 0.389711432 0.175 L 0.374161326 0.194449582 L 0.357009003 0.2130665 L 0.338327913 0.230771035 L 0.318198052 0.247487373 L 0.296705617 0.263143933 L 0.273942643 0.277673669 L 0.250006605 0.291014364 L 0.225 0.303108891 L 0.199029911 0.31390546 L 0.172207545 0.323357836 L 0.144647759 0.331425545 L 0.11646857 0.338074039 L 0.087790645 0.343274848 L 0.058736786 0.347005701 L 0.029431408 0.349250623 L 0 0.35 L -0.029431408 0.349250623 L -0.058736786 0.347005701 L -0.087790645 0.343274848 L -0.11646857 0.338074039 L -0.144647759 0.331425545 L -0.172207545 0.323357836 L -0.199029911 0.31390546 L -0.225 0.303108891 L -0.250006605 0.291014364 L -0.273942643 0.277673669 L -0.296705617 0.263143933 L -0.318198052 0.247487373 L -0.338327913 0.230771035 L -0.357009003 0.2130665 L -0.374161326 0.194449582 L -0.389711432 0.175 L -0.403592734 0.154801042 L -0.41574579 0.133939201 L -0.426118558 0.112503813 L -0.434666622 0.090586666 L -0.441353376 0.068281613 L -0.446150188 0.045684167 L -0.449036515 0.022891095 L -0.45 0 L -0.449036515 -0.022891095 L -0.446150188 -0.045684167 L -0.441353376 -0.068281613 L -0.434666622 -0.090586666 L -0.426118558 -0.112503813 L -0.41574579 -0.133939201 L -0.403592734 -0.154801042 L -0.389711432 -0.175 L -0.374161326 -0.194449582 L -0.357009003 -0.2130665 L -0.338327913 -0.230771035 L -0.318198052 -0.247487373 L -0.296705617 -0.263143933 L -0.273942643 -0.277673669 L -0.250006605 -0.291014364 L -0.225 -0.303108891 L -0.199029911 -0.31390546 L -0.172207545 -0.323357836 L -0.144647759 -0.331425545 L -0.11646857 -0.338074039 L -0.087790645 -0.343274848 L -0.058736786 -0.347005701 L -0.029431408 -0.349250623 L 0 -0.35 L 0.029431408 -0.349250623 L 0.058736786 -0.347005701 L 0.087790645 -0.343274848 L 0.11646857 -0.338074039 L 0.144647759 -0.331425545 L 0.172207545 -0.323357836 L 0.199029911 -0.31390546 L 0.225 -0.303108891 L 0.250006605 -0.291014364 L 0.273942643 -0.277673669 L 0.296705617 -0.263143933 L 0.318198052 -0.247487373 L 0.338327913 -0.230771035 L 0.357009003 -0.2130665 L 0.374161326 -0.194449582 L 0.389711432 -0.175 L 0.403592734 -0.154801042 L 0.41574579 -0.133939201 L 0.426118558 -0.112503813 L 0.434666622 -0.090586666 L 0.441353376 -0.068281613 L 0.446150188 -0.045684167 L 0.449036515 -0.022891095 Z"/></clipPath><clipPath id="graph-radial-7784526b88463a90064f-silhouette-radial-attachment-0-0-0"><path d="M 0.05 0.583230813 L 0.049039264 0.592985329 L 0.046193977 0.602364985 L 0.041573481 0.611009325 L 0.035355339 0.618586152 L 0.027778512 0.624804294 L 0.019134172 0.62942479 L 0.009754516 0.632270077 L 0 0.633230813 L -0.009754516 0.632270077 L -0.019134172 0.62942479 L -0.027778512 0.624804294 L -0.035355339 0.618586152 L -0.041573481 0.611009325 L -0.046193977 0.602364985 L -0.049039264 0.592985329 L -0.05 0.583230813 L -0.05 0.339770511 L -0.049039264 0.330015995 L -0.046193977 0.320636339 L -0.041573481 0.311991999 L -0.035355339 0.304415172 L -0.027778512 0.29819703 L -0.019134172 0.293576534 L -0.009754516 0.290731247 L 0 0.289770511 L 0.009754516 0.290731247 L 0.019134172 0.293576534 L 0.027778512 0.29819703 L 0.035355339 0.304415172 L 0.041573481 0.311991999 L 0.046193977 0.320636339 L 0.049039264 0.330015995 L 0.05 0.339770511 Z"/></clipPath><clipPath id="graph-radial-7784526b88463a90064f-silhouette-radial-attachment-0-1-0"><path d="M 0.374699866 -0.54879609 L 0.381541144 -0.555815386 L 0.389620365 -0.561365141 L 0.39862705 -0.565232081 L 0.408215077 -0.567267602 L 0.418015982 -0.56739348 L 0.427653124 -0.565604877 L 0.436756151 -0.561970529 L 0.444975241 -0.556630101 L 0.451994537 -0.549788823 L 0.457544292 -0.541709602 L 0.461411232 -0.532702917 L 0.463446753 -0.52311489 L 0.46357263 -0.513313984 L 0.461784028 -0.503676843 L 0.458149679 -0.494573815 L 0.452809251 -0.486354726 L 0.269719311 -0.257323169 L 0.262878033 -0.250303873 L 0.254798811 -0.244754118 L 0.245792127 -0.240887178 L 0.2362041 -0.238851657 L 0.226403194 -0.238725779 L 0.216766053 -0.240514382 L 0.207663025 -0.24414873 L 0.199443936 -0.249489158 L 0.19242464 -0.256330436 L 0.186874885 -0.264409657 L 0.183007945 -0.273416342 L 0.180972424 -0.283004369 L 0.180846546 -0.292805274 L 0.182635149 -0.302442416 L 0.186269497 -0.311545444 L 0.191609925 -0.319764533 Z"/></clipPath><clipPath id="graph-radial-7784526b88463a90064f-silhouette-radial-attachment-0-2-0"><path d="M -0.452809251 -0.486354726 L -0.458149679 -0.494573815 L -0.461784028 -0.503676843 L -0.46357263 -0.513313984 L -0.463446753 -0.52311489 L -0.461411232 -0.532702917 L -0.457544292 -0.541709602 L -0.451994537 -0.549788823 L -0.444975241 -0.556630101 L -0.436756151 -0.561970529 L -0.427653124 -0.565604877 L -0.418015982 -0.56739348 L -0.408215077 -0.567267602 L -0.39862705 -0.565232081 L -0.389620365 -0.561365141 L -0.381541144 -0.555815386 L -0.374699866 -0.54879609 L -0.191609925 -0.319764533 L -0.186269497 -0.311545444 L -0.182635149 -0.302442416 L -0.180846546 -0.292805274 L -0.180972424 -0.283004369 L -0.183007945 -0.273416342 L -0.186874885 -0.264409657 L -0.19242464 -0.256330436 L -0.199443936 -0.249489158 L -0.207663025 -0.24414873 L -0.216766053 -0.240514382 L -0.226403194 -0.238725779 L -0.2362041 -0.238851657 L -0.245792127 -0.240887178 L -0.254798811 -0.244754118 L -0.262878033 -0.250303873 L -0.269719311 -0.257323169 Z"/></clipPath></defs><g transform="translate(128 122.07772101515471) scale(179.90640475189082)" data-world-scale="179.90640475189082"><g clip-path="url(#graph-radial-7784526b88463a90064f-silhouette-radial-body)"><path d="M -0.45 -0.35 L 0.45 -0.35 L 0.45 0.35 L -0.45 0.35 Z" fill="#20282b"/></g><g clip-path="url(#graph-radial-7784526b88463a90064f-silhouette-radial-attachment-0-0-0)"><path d="M 0.05 0.289770511 L 0.05 0.633230813 L -0.05 0.633230813 L -0.05 0.289770511 Z" fill="#20282b"/></g><g clip-path="url(#graph-radial-7784526b88463a90064f-silhouette-radial-attachment-0-1-0)"><path d="M 0.160389243 -0.28070984 L 0.405920548 -0.587850783 L 0.484029933 -0.525409419 L 0.238498629 -0.218268476 Z" fill="#20282b"/></g><g clip-path="url(#graph-radial-7784526b88463a90064f-silhouette-radial-attachment-0-2-0)"><path d="M -0.238498629 -0.218268476 L -0.484029933 -0.525409419 L -0.405920548 -0.587850783 L -0.160389243 -0.28070984 Z" fill="#20282b"/></g></g></svg><svg x="512" y="256" xmlns="http://www.w3.org/2000/svg" width="256" height="256" viewBox="0 0 256 256"><title>Radial XYZ source projected along X into YZ; inspection overlay, not physical depth sorting</title><desc>Body first; contacts and root rings exposed for inspection. Neutral outline, texture and root ink are not inherited pigment. Silhouette mode is a diagnostic pigment override only.</desc><rect width="256" height="256" fill="#f7f5ee"/><defs><clipPath id="graph-radial-6e1800db60bc6612f843-silhouette-radial-body"><path d="M 0.45 0 L 0.449036515 0.009810469 L 0.446150188 0.019578929 L 0.441353376 0.029263548 L 0.434666622 0.038822857 L 0.426118558 0.04821592 L 0.41574579 0.057402515 L 0.403592734 0.066343304 L 0.389711432 0.075 L 0.374161326 0.083335535 L 0.357009003 0.091314214 L 0.338327913 0.098901872 L 0.318198052 0.106066017 L 0.296705617 0.112775971 L 0.273942643 0.119003001 L 0.250006605 0.124720442 L 0.225 0.129903811 L 0.199029911 0.134530911 L 0.172207545 0.13858193 L 0.144647759 0.142039519 L 0.11646857 0.144888874 L 0.087790645 0.147117792 L 0.058736786 0.148716729 L 0.029431408 0.149678838 L 0 0.15 L -0.029431408 0.149678838 L -0.058736786 0.148716729 L -0.087790645 0.147117792 L -0.11646857 0.144888874 L -0.144647759 0.142039519 L -0.172207545 0.13858193 L -0.199029911 0.134530911 L -0.225 0.129903811 L -0.250006605 0.124720442 L -0.273942643 0.119003001 L -0.296705617 0.112775971 L -0.318198052 0.106066017 L -0.338327913 0.098901872 L -0.357009003 0.091314214 L -0.374161326 0.083335535 L -0.389711432 0.075 L -0.403592734 0.066343304 L -0.41574579 0.057402515 L -0.426118558 0.04821592 L -0.434666622 0.038822857 L -0.441353376 0.029263548 L -0.446150188 0.019578929 L -0.449036515 0.009810469 L -0.45 0 L -0.449036515 -0.009810469 L -0.446150188 -0.019578929 L -0.441353376 -0.029263548 L -0.434666622 -0.038822857 L -0.426118558 -0.04821592 L -0.41574579 -0.057402515 L -0.403592734 -0.066343304 L -0.389711432 -0.075 L -0.374161326 -0.083335535 L -0.357009003 -0.091314214 L -0.338327913 -0.098901872 L -0.318198052 -0.106066017 L -0.296705617 -0.112775971 L -0.273942643 -0.119003001 L -0.250006605 -0.124720442 L -0.225 -0.129903811 L -0.199029911 -0.134530911 L -0.172207545 -0.13858193 L -0.144647759 -0.142039519 L -0.11646857 -0.144888874 L -0.087790645 -0.147117792 L -0.058736786 -0.148716729 L -0.029431408 -0.149678838 L 0 -0.15 L 0.029431408 -0.149678838 L 0.058736786 -0.148716729 L 0.087790645 -0.147117792 L 0.11646857 -0.144888874 L 0.144647759 -0.142039519 L 0.172207545 -0.13858193 L 0.199029911 -0.134530911 L 0.225 -0.129903811 L 0.250006605 -0.124720442 L 0.273942643 -0.119003001 L 0.296705617 -0.112775971 L 0.318198052 -0.106066017 L 0.338327913 -0.098901872 L 0.357009003 -0.091314214 L 0.374161326 -0.083335535 L 0.389711432 -0.075 L 0.403592734 -0.066343304 L 0.41574579 -0.057402515 L 0.426118558 -0.04821592 L 0.434666622 -0.038822857 L 0.441353376 -0.029263548 L 0.446150188 -0.019578929 L 0.449036515 -0.009810469 Z"/></clipPath><clipPath id="graph-radial-6e1800db60bc6612f843-silhouette-radial-attachment-0-0-0"><path d="M 0.05 0.42415894 L 0.049039264 0.433913457 L 0.046193977 0.443293112 L 0.041573481 0.451937452 L 0.035355339 0.45951428 L 0.027778512 0.465732421 L 0.019134172 0.470352917 L 0.009754516 0.473198204 L 0 0.47415894 L -0.009754516 0.473198204 L -0.019134172 0.470352917 L -0.027778512 0.465732421 L -0.035355339 0.45951428 L -0.041573481 0.451937452 L -0.046193977 0.443293112 L -0.049039264 0.433913457 L -0.05 0.42415894 L -0.05 0.145615933 L -0.049039264 0.135861417 L -0.046193977 0.126481762 L -0.041573481 0.117837422 L -0.035355339 0.110260594 L -0.027778512 0.104042453 L -0.019134172 0.099421957 L -0.009754516 0.096576669 L 0 0.095615933 L 0.009754516 0.096576669 L 0.019134172 0.099421957 L 0.027778512 0.104042453 L 0.035355339 0.110260594 L 0.041573481 0.117837422 L 0.046193977 0.126481762 L 0.049039264 0.135861417 L 0.05 0.145615933 Z"/></clipPath><clipPath id="graph-radial-6e1800db60bc6612f843-silhouette-radial-attachment-0-1-0"><path d="M 0.343569781 -0.363683466 L 0.351572456 -0.369343042 L 0.360525489 -0.373332626 L 0.370084822 -0.375498902 L 0.379883095 -0.375758619 L 0.389543765 -0.374101798 L 0.398695578 -0.370592109 L 0.406986835 -0.365364428 L 0.414098908 -0.358619651 L 0.419758484 -0.350616977 L 0.423748068 -0.341663943 L 0.425914344 -0.33210461 L 0.426174061 -0.322306337 L 0.424517241 -0.312645667 L 0.421007552 -0.303493854 L 0.41577987 -0.295202597 L 0.409035094 -0.288090524 L 0.189653218 -0.098100523 L 0.181650543 -0.092440947 L 0.172697509 -0.088451363 L 0.163138176 -0.086285088 L 0.153339904 -0.08602537 L 0.143679234 -0.087682191 L 0.134527421 -0.09119188 L 0.126236163 -0.096419561 L 0.11912409 -0.103164338 L 0.113464514 -0.111167012 L 0.10947493 -0.120120046 L 0.107308655 -0.129679379 L 0.107048937 -0.139477652 L 0.108705758 -0.149138322 L 0.112215447 -0.158290135 L 0.117443128 -0.166581392 L 0.124187905 -0.173693465 Z"/></clipPath><clipPath id="graph-radial-6e1800db60bc6612f843-silhouette-radial-attachment-0-2-0"><path d="M -0.409035094 -0.288090524 L -0.41577987 -0.295202597 L -0.421007552 -0.303493854 L -0.424517241 -0.312645667 L -0.426174061 -0.322306337 L -0.425914344 -0.33210461 L -0.423748068 -0.341663943 L -0.419758484 -0.350616977 L -0.414098908 -0.358619651 L -0.406986835 -0.365364428 L -0.398695578 -0.370592109 L -0.389543765 -0.374101798 L -0.379883095 -0.375758619 L -0.370084822 -0.375498902 L -0.360525489 -0.373332626 L -0.351572456 -0.369343042 L -0.343569781 -0.363683466 L -0.124187905 -0.173693465 L -0.117443128 -0.166581392 L -0.112215447 -0.158290135 L -0.108705758 -0.149138322 L -0.107048937 -0.139477652 L -0.107308655 -0.129679379 L -0.10947493 -0.120120046 L -0.113464514 -0.111167012 L -0.11912409 -0.103164338 L -0.126236163 -0.096419561 L -0.134527421 -0.09119188 L -0.143679234 -0.087682191 L -0.153339904 -0.08602537 L -0.163138176 -0.086285088 L -0.172697509 -0.088451363 L -0.181650543 -0.092440947 L -0.189653218 -0.098100523 Z"/></clipPath></defs><g transform="translate(128 122.07772101515471) scale(179.90640475189082)" data-world-scale="179.90640475189082"><g clip-path="url(#graph-radial-6e1800db60bc6612f843-silhouette-radial-body)"><path d="M -0.45 -0.15 L 0.45 -0.15 L 0.45 0.15 L -0.45 0.15 Z" fill="#20282b"/></g><g clip-path="url(#graph-radial-6e1800db60bc6612f843-silhouette-radial-attachment-0-0-0)"><path d="M 0.05 0.095615933 L 0.05 0.47415894 L -0.05 0.47415894 L -0.05 0.095615933 Z" fill="#20282b"/></g><g clip-path="url(#graph-radial-6e1800db60bc6612f843-silhouette-radial-attachment-0-1-0)"><path d="M 0.086391434 -0.140960809 L 0.381366252 -0.396416122 L 0.446831565 -0.32082318 L 0.151856747 -0.065367867 Z" fill="#20282b"/></g><g clip-path="url(#graph-radial-6e1800db60bc6612f843-silhouette-radial-attachment-0-2-0)"><path d="M -0.151856747 -0.065367867 L -0.446831565 -0.32082318 L -0.381366252 -0.396416122 L -0.086391434 -0.140960809 Z" fill="#20282b"/></g></g></svg></svg>
