<svg xmlns="http://www.w3.org/2000/svg" width="512" height="512" viewBox="0 0 512 512" role="img"><title>Static XY graph-source construction proof; shared world scale</title><rect width="512" height="512" fill="#f7f5ee"/><defs><clipPath id="graph-source-0026c975c231c495d8ee-body-exterior"><path d="M -0.405 0 L -0.40305 0.030794 L -0.397218 0.061291 L -0.387561 0.091198 L -0.374171 0.120226 L -0.357178 0.148097 L -0.336745 0.174542 L -0.313069 0.199305 L -0.286378 0.222149 L -0.256929 0.242854 L -0.225006 0.26122 L -0.190916 0.27707 L -0.154987 0.290252 L -0.117565 0.300639 L -0.079012 0.30813 L -0.039697 0.312654 L 0 0.314167 L 0.03625 0.312237 L 0.0725 0.306904 L 0.10875 0.298848 L 0.145 0.288748 L 0.18125 0.277287 L 0.2175 0.265146 L 0.25375 0.253004 L 0.29 0.241543 L 0.32625 0.231444 L 0.3625 0.223387 L 0.39875 0.218054 L 0.435 0.216125 L 0.47125 0.216349 L 0.5075 0.216968 L 0.54375 0.217902 L 0.58 0.219074 L 0.61625 0.220404 L 0.6525 0.221812 L 0.68875 0.223221 L 0.725 0.224551 L 0.76125 0.225723 L 0.7975 0.226657 L 0.83375 0.227276 L 0.87 0.2275 L 0.896875 0.224492 L 0.92375 0.216175 L 0.950625 0.203612 L 0.9775 0.187863 L 1.004375 0.169991 L 1.03125 0.151057 L 1.058125 0.132123 L 1.085 0.114251 L 1.111875 0.098503 L 1.13875 0.085939 L 1.165625 0.077623 L 1.1925 0.074614 L 1.219375 0.074692 L 1.24625 0.074905 L 1.273125 0.075228 L 1.3 0.075633 L 1.326875 0.076092 L 1.35375 0.076578 L 1.380625 0.077064 L 1.4075 0.077523 L 1.434375 0.077928 L 1.46125 0.078251 L 1.488125 0.078464 L 1.515 0.078542 L 1.532643 0.078163 L 1.550116 0.077032 L 1.567251 0.07516 L 1.583883 0.072563 L 1.599851 0.069267 L 1.615003 0.065305 L 1.629191 0.060713 L 1.642279 0.055537 L 1.654142 0.049826 L 1.664665 0.043635 L 1.673746 0.037024 L 1.681298 0.030057 L 1.687249 0.022799 L 1.691541 0.015323 L 1.694133 0.007698 L 1.695 0 L 1.694133 -0.007698 L 1.691541 -0.015323 L 1.687249 -0.022799 L 1.681298 -0.030057 L 1.673746 -0.037024 L 1.664665 -0.043635 L 1.654142 -0.049826 L 1.642279 -0.055537 L 1.629191 -0.060713 L 1.615003 -0.065305 L 1.599851 -0.069267 L 1.583883 -0.072563 L 1.567251 -0.07516 L 1.550116 -0.077032 L 1.532643 -0.078163 L 1.515 -0.078542 L 1.488125 -0.078464 L 1.46125 -0.078251 L 1.434375 -0.077928 L 1.4075 -0.077523 L 1.380625 -0.077064 L 1.35375 -0.076578 L 1.326875 -0.076092 L 1.3 -0.075633 L 1.273125 -0.075228 L 1.24625 -0.074905 L 1.219375 -0.074692 L 1.1925 -0.074614 L 1.165625 -0.077623 L 1.13875 -0.085939 L 1.111875 -0.098503 L 1.085 -0.114251 L 1.058125 -0.132123 L 1.03125 -0.151057 L 1.004375 -0.169991 L 0.9775 -0.187863 L 0.950625 -0.203612 L 0.92375 -0.216175 L 0.896875 -0.224492 L 0.87 -0.2275 L 0.83375 -0.227276 L 0.7975 -0.226657 L 0.76125 -0.225723 L 0.725 -0.224551 L 0.68875 -0.223221 L 0.6525 -0.221812 L 0.61625 -0.220404 L 0.58 -0.219074 L 0.54375 -0.217902 L 0.5075 -0.216968 L 0.47125 -0.216349 L 0.435 -0.216125 L 0.39875 -0.218054 L 0.3625 -0.223387 L 0.32625 -0.231444 L 0.29 -0.241543 L 0.25375 -0.253004 L 0.2175 -0.265146 L 0.18125 -0.277287 L 0.145 -0.288748 L 0.10875 -0.298848 L 0.0725 -0.306904 L 0.03625 -0.312237 L 0 -0.314167 L -0.039697 -0.312654 L -0.079012 -0.30813 L -0.117565 -0.300639 L -0.154987 -0.290252 L -0.190916 -0.27707 L -0.225006 -0.26122 L -0.256929 -0.242854 L -0.286378 -0.222149 L -0.313069 -0.199305 L -0.336745 -0.174542 L -0.357178 -0.148097 L -0.374171 -0.120226 L -0.387561 -0.091198 L -0.397218 -0.061291 L -0.40305 -0.030794 Z"/></clipPath><clipPath id="graph-source-0026c975c231c495d8ee-constructed-fin-0-0"><path d="M -0.2787 0.227548 L -0.303021 0.445508 L -0.1587 0.28889 Z"/></clipPath><clipPath id="graph-source-0026c975c231c495d8ee-constructed-fin-0-1"><path d="M -0.2787 -0.227548 L -0.303021 -0.445508 L -0.1587 -0.28889 Z"/></clipPath><clipPath id="graph-source-0026c975c231c495d8ee-constructed-fin-1-0"><path d="M 0.7344 0.224855 L 0.789244 0.426511 L 0.8544 0.227404 Z"/></clipPath><clipPath id="graph-source-0026c975c231c495d8ee-constructed-fin-1-1"><path d="M 0.7344 -0.224855 L 0.789244 -0.426511 L 0.8544 -0.227404 Z"/></clipPath><clipPath id="graph-source-0026c975c231c495d8ee-constructed-fin-2-0"><path d="M 1.4658 0.078287 L 1.530086 0.278264 L 1.5858 0.072167 Z"/></clipPath><clipPath id="graph-source-0026c975c231c495d8ee-constructed-fin-2-1"><path d="M 1.4658 -0.078287 L 1.530086 -0.278264 L 1.5858 -0.072167 Z"/></clipPath></defs><g transform="translate(111.028571 256) scale(224.761905)"><path d="M -0.2787 0.227548 L -0.303021 0.445508 L -0.1587 0.28889 Z" fill="#dfd2ae"/><path d="M -0.2787 -0.227548 L -0.303021 -0.445508 L -0.1587 -0.28889 Z" fill="#dfd2ae"/><path d="M 0.7344 0.224855 L 0.789244 0.426511 L 0.8544 0.227404 Z" fill="#dfd2ae"/><path d="M 0.7344 -0.224855 L 0.789244 -0.426511 L 0.8544 -0.227404 Z" fill="#dfd2ae"/><path d="M 1.4658 0.078287 L 1.530086 0.278264 L 1.5858 0.072167 Z" fill="#dfd2ae"/><path d="M 1.4658 -0.078287 L 1.530086 -0.278264 L 1.5858 -0.072167 Z" fill="#dfd2ae"/><g clip-path="url(#graph-source-0026c975c231c495d8ee-body-exterior)"><rect x="-0.405" y="-0.3141665" width="0.8400000000000001" height="0.628333" fill="#269fa5"/></g><g clip-path="url(#graph-source-0026c975c231c495d8ee-body-exterior)"><rect x="0.435" y="-0.3141665" width="0.7574999999999998" height="0.628333" fill="#269fa5"/></g><g clip-path="url(#graph-source-0026c975c231c495d8ee-body-exterior)"><rect x="1.1925" y="-0.3141665" width="0.5025000000000002" height="0.628333" fill="#269fa5"/></g><path d="M -0.2787 0.227548 L -0.303021 0.445508 L -0.1587 0.28889 Z" fill="none" stroke="#273036" stroke-width="0.005339" stroke-linejoin="round"/><path d="M -0.2787 -0.227548 L -0.303021 -0.445508 L -0.1587 -0.28889 Z" fill="none" stroke="#273036" stroke-width="0.005339" stroke-linejoin="round"/><path d="M 0.7344 0.224855 L 0.789244 0.426511 L 0.8544 0.227404 Z" fill="none" stroke="#273036" stroke-width="0.005339" stroke-linejoin="round"/><path d="M 0.7344 -0.224855 L 0.789244 -0.426511 L 0.8544 -0.227404 Z" fill="none" stroke="#273036" stroke-width="0.005339" stroke-linejoin="round"/><path d="M 1.4658 0.078287 L 1.530086 0.278264 L 1.5858 0.072167 Z" fill="none" stroke="#273036" stroke-width="0.005339" stroke-linejoin="round"/><path d="M 1.4658 -0.078287 L 1.530086 -0.278264 L 1.5858 -0.072167 Z" fill="none" stroke="#273036" stroke-width="0.005339" stroke-linejoin="round"/><path d="M -0.405 0 L -0.40305 0.030794 L -0.397218 0.061291 L -0.387561 0.091198 L -0.374171 0.120226 L -0.357178 0.148097 L -0.336745 0.174542 L -0.313069 0.199305 L -0.286378 0.222149 L -0.256929 0.242854 L -0.225006 0.26122 L -0.190916 0.27707 L -0.154987 0.290252 L -0.117565 0.300639 L -0.079012 0.30813 L -0.039697 0.312654 L 0 0.314167 L 0.03625 0.312237 L 0.0725 0.306904 L 0.10875 0.298848 L 0.145 0.288748 L 0.18125 0.277287 L 0.2175 0.265146 L 0.25375 0.253004 L 0.29 0.241543 L 0.32625 0.231444 L 0.3625 0.223387 L 0.39875 0.218054 L 0.435 0.216125 L 0.47125 0.216349 L 0.5075 0.216968 L 0.54375 0.217902 L 0.58 0.219074 L 0.61625 0.220404 L 0.6525 0.221812 L 0.68875 0.223221 L 0.725 0.224551 L 0.76125 0.225723 L 0.7975 0.226657 L 0.83375 0.227276 L 0.87 0.2275 L 0.896875 0.224492 L 0.92375 0.216175 L 0.950625 0.203612 L 0.9775 0.187863 L 1.004375 0.169991 L 1.03125 0.151057 L 1.058125 0.132123 L 1.085 0.114251 L 1.111875 0.098503 L 1.13875 0.085939 L 1.165625 0.077623 L 1.1925 0.074614 L 1.219375 0.074692 L 1.24625 0.074905 L 1.273125 0.075228 L 1.3 0.075633 L 1.326875 0.076092 L 1.35375 0.076578 L 1.380625 0.077064 L 1.4075 0.077523 L 1.434375 0.077928 L 1.46125 0.078251 L 1.488125 0.078464 L 1.515 0.078542 L 1.532643 0.078163 L 1.550116 0.077032 L 1.567251 0.07516 L 1.583883 0.072563 L 1.599851 0.069267 L 1.615003 0.065305 L 1.629191 0.060713 L 1.642279 0.055537 L 1.654142 0.049826 L 1.664665 0.043635 L 1.673746 0.037024 L 1.681298 0.030057 L 1.687249 0.022799 L 1.691541 0.015323 L 1.694133 0.007698 L 1.695 0 L 1.694133 -0.007698 L 1.691541 -0.015323 L 1.687249 -0.022799 L 1.681298 -0.030057 L 1.673746 -0.037024 L 1.664665 -0.043635 L 1.654142 -0.049826 L 1.642279 -0.055537 L 1.629191 -0.060713 L 1.615003 -0.065305 L 1.599851 -0.069267 L 1.583883 -0.072563 L 1.567251 -0.07516 L 1.550116 -0.077032 L 1.532643 -0.078163 L 1.515 -0.078542 L 1.488125 -0.078464 L 1.46125 -0.078251 L 1.434375 -0.077928 L 1.4075 -0.077523 L 1.380625 -0.077064 L 1.35375 -0.076578 L 1.326875 -0.076092 L 1.3 -0.075633 L 1.273125 -0.075228 L 1.24625 -0.074905 L 1.219375 -0.074692 L 1.1925 -0.074614 L 1.165625 -0.077623 L 1.13875 -0.085939 L 1.111875 -0.098503 L 1.085 -0.114251 L 1.058125 -0.132123 L 1.03125 -0.151057 L 1.004375 -0.169991 L 0.9775 -0.187863 L 0.950625 -0.203612 L 0.92375 -0.216175 L 0.896875 -0.224492 L 0.87 -0.2275 L 0.83375 -0.227276 L 0.7975 -0.226657 L 0.76125 -0.225723 L 0.725 -0.224551 L 0.68875 -0.223221 L 0.6525 -0.221812 L 0.61625 -0.220404 L 0.58 -0.219074 L 0.54375 -0.217902 L 0.5075 -0.216968 L 0.47125 -0.216349 L 0.435 -0.216125 L 0.39875 -0.218054 L 0.3625 -0.223387 L 0.32625 -0.231444 L 0.29 -0.241543 L 0.25375 -0.253004 L 0.2175 -0.265146 L 0.18125 -0.277287 L 0.145 -0.288748 L 0.10875 -0.298848 L 0.0725 -0.306904 L 0.03625 -0.312237 L 0 -0.314167 L -0.039697 -0.312654 L -0.079012 -0.30813 L -0.117565 -0.300639 L -0.154987 -0.290252 L -0.190916 -0.27707 L -0.225006 -0.26122 L -0.256929 -0.242854 L -0.286378 -0.222149 L -0.313069 -0.199305 L -0.336745 -0.174542 L -0.357178 -0.148097 L -0.374171 -0.120226 L -0.387561 -0.091198 L -0.397218 -0.061291 L -0.40305 -0.030794 Z" fill="none" stroke="#273036" stroke-width="0.005339" stroke-linejoin="round"/></g><g data-covering="5a3b12fa4224c9546e4f59dbf024bc6cf8cfd42f2b7ee66fa338d8230a69a643" data-ocular="7fd990b836a12d663dbc7dfabcec3daa00062eb3c14798ef52b77b46d78da475" data-inspection-presentation="covering-inspection/1" transform="translate(111.02857142857144 256) scale(224.76190476190476)"><g><circle cx="-0.12150000000000005" cy="-0.1497732454646406" r="0.11309994" fill="#f1eddc"/><circle cx="-0.12150000000000005" cy="-0.1497732454646406" r="0.062204967" fill="#273036"/></g><g><circle cx="-0.12150000000000005" cy="0.1497732454646406" r="0.11309994" fill="#f1eddc"/><circle cx="-0.12150000000000005" cy="0.1497732454646406" r="0.062204967" fill="#273036"/></g></g></svg>