<svg xmlns="http://www.w3.org/2000/svg" viewBox="0 0 1024 600" width="1024" height="600" font-family="ui-monospace, Menlo, Consolas, monospace">
<title>Pods · Read, an eight-trait chapter, seven-chapter compact rail wireframe, 1024×600, measured. Layout only, no art.</title>
<defs><pattern id="g8" width="8" height="8" patternUnits="userSpaceOnUse"><path d="M8 0H0V8" fill="none" stroke="#efefef" stroke-width="0.5"/></pattern></defs>
<rect width="1024" height="600" fill="#ffffff"/><rect width="1024" height="600" fill="url(#g8)"/>
<rect x="0.5" y="0.5" width="1023" height="39" fill="#e6e6e2" stroke="#444" stroke-width="1"/>
<rect x="16.5" y="8.5" width="239" height="23" fill="none" stroke="#999" stroke-width="1" stroke-dasharray="2 2"/>
<rect x="384.5" y="8.5" width="255" height="23" fill="none" stroke="#999" stroke-width="1" stroke-dasharray="2 2"/>
<rect x="640.5" y="8.5" width="367" height="23" fill="none" stroke="#999" stroke-width="1" stroke-dasharray="2 2"/>
<rect x="0.5" y="562.5" width="1023" height="37" fill="#e6e6e2" stroke="#444" stroke-width="1"/>
<rect x="16.5" y="570.5" width="375" height="23" fill="none" stroke="#999" stroke-width="1" stroke-dasharray="2 2"/>
<rect x="400.5" y="570.5" width="223" height="23" fill="none" stroke="#999" stroke-width="1" stroke-dasharray="2 2"/>
<rect x="632.5" y="570.5" width="375" height="23" fill="none" stroke="#999" stroke-width="1" stroke-dasharray="2 2"/>
<line x1="0" y1="40.5" x2="1024" y2="40.5" stroke="#444"/><line x1="0" y1="561.5" x2="1024" y2="561.5" stroke="#444"/>
<rect x="0.5" y="40.5" width="111" height="521" fill="none" stroke="#888" stroke-width="1" stroke-dasharray="6 4"/>
<rect x="24.5" y="48.5" width="79" height="71" fill="#f7f7f7" stroke="#bbb" stroke-width="1"/>
<circle cx="64.0" cy="84.0" r="33.0" fill="none" stroke="#666" stroke-width="1"/>
<circle cx="64.0" cy="84.0" r="25.0" fill="none" stroke="#999" stroke-width="1"/>
<rect x="44.5" y="60.5" width="39" height="47" fill="#ffeedb" stroke="#c45f12" stroke-width="1"/>
<rect x="24.5" y="120.5" width="79" height="71" fill="#f7f7f7" stroke="#bbb" stroke-width="1"/>
<circle cx="64.0" cy="156.0" r="33.0" fill="none" stroke="#666" stroke-width="1"/>
<circle cx="64.0" cy="156.0" r="25.0" fill="none" stroke="#999" stroke-width="1"/>
<rect x="44.5" y="132.5" width="39" height="47" fill="#ffeedb" stroke="#c45f12" stroke-width="1"/>
<rect x="24.5" y="192.5" width="79" height="71" fill="#f7f7f7" stroke="#bbb" stroke-width="1"/>
<circle cx="64.0" cy="228.0" r="33.0" fill="none" stroke="#666" stroke-width="1"/>
<circle cx="64.0" cy="228.0" r="25.0" fill="none" stroke="#999" stroke-width="1"/>
<rect x="44.5" y="204.5" width="39" height="47" fill="#ffeedb" stroke="#c45f12" stroke-width="1"/>
<rect x="24.5" y="264.5" width="79" height="71" fill="#f7f7f7" stroke="#bbb" stroke-width="1"/>
<circle cx="64.0" cy="300.0" r="33.0" fill="none" stroke="#666" stroke-width="1"/>
<circle cx="64.0" cy="300.0" r="25.0" fill="none" stroke="#999" stroke-width="1"/>
<rect x="44.5" y="276.5" width="39" height="47" fill="#ffeedb" stroke="#c45f12" stroke-width="1"/>
<rect x="24.5" y="336.5" width="79" height="71" fill="#f7f7f7" stroke="#bbb" stroke-width="1"/>
<circle cx="64.0" cy="372.0" r="33.0" fill="none" stroke="#666" stroke-width="1"/>
<circle cx="64.0" cy="372.0" r="25.0" fill="none" stroke="#999" stroke-width="1"/>
<rect x="44.5" y="348.5" width="39" height="47" fill="#ffeedb" stroke="#c45f12" stroke-width="1"/>
<rect x="24.5" y="408.5" width="79" height="71" fill="#f7f7f7" stroke="#bbb" stroke-width="1"/>
<circle cx="64.0" cy="444.0" r="33.0" fill="none" stroke="#666" stroke-width="1"/>
<circle cx="64.0" cy="444.0" r="25.0" fill="none" stroke="#999" stroke-width="1"/>
<rect x="44.5" y="420.5" width="39" height="47" fill="#ffeedb" stroke="#c45f12" stroke-width="1"/>
<circle cx="64.0" cy="84.0" r="37.0" fill="none" stroke="#d29a00" stroke-width="2" stroke-dasharray="3 3"/>
<rect x="24.5" y="488.5" width="79" height="55" fill="#f2f2f2" stroke="#444" stroke-width="1"/>
<rect x="152.5" y="40.5" width="831" height="39" fill="none" stroke="#888" stroke-width="1" stroke-dasharray="6 4"/>
<polygon points="152,40 208,40 224,80 168,80" fill="#f2f2f2" stroke="#444" stroke-width="1"/>
<polygon points="208,40 344,40 360,80 224,80" fill="#dfe3e8" stroke="#444" stroke-width="1"/>
<polygon points="344,40 400,40 416,80 360,80" fill="#f2f2f2" stroke="#444" stroke-width="1"/>
<polygon points="400,40 456,40 472,80 416,80" fill="#f2f2f2" stroke="#444" stroke-width="1"/>
<polygon points="456,40 512,40 528,80 472,80" fill="#f2f2f2" stroke="#444" stroke-width="1"/>
<polygon points="512,40 568,40 584,80 528,80" fill="#f2f2f2" stroke="#444" stroke-width="1"/>
<polygon points="568,40 624,40 640,80 584,80" fill="#f2f2f2" stroke="#444" stroke-width="1"/>
<rect x="152.5" y="112.5" width="255" height="439" fill="#eef1f3" stroke="#556" stroke-width="1"/>
<rect x="168.5" y="120.5" width="223" height="23" fill="none" stroke="#999" stroke-width="1" stroke-dasharray="2 2"/>
<rect x="168.5" y="160.5" width="103" height="63" fill="#ffffff" stroke="#666" stroke-width="1"/>
<rect x="168.5" y="228.5" width="103" height="19" fill="none" stroke="#999" stroke-width="1" stroke-dasharray="2 2"/>
<rect x="288.5" y="160.5" width="103" height="63" fill="#ffffff" stroke="#666" stroke-width="1"/>
<rect x="288.5" y="228.5" width="103" height="19" fill="none" stroke="#999" stroke-width="1" stroke-dasharray="2 2"/>
<rect x="352.5" y="176.5" width="31" height="39" fill="#f4f5fa" stroke="#6b6f8a" stroke-width="1" stroke-dasharray="3 2"/>
<rect x="168.5" y="256.5" width="103" height="63" fill="#ffffff" stroke="#666" stroke-width="1"/>
<rect x="168.5" y="324.5" width="103" height="19" fill="none" stroke="#999" stroke-width="1" stroke-dasharray="2 2"/>
<rect x="215.5" y="264.5" width="9" height="9" rx="4" fill="#f1ebdf" stroke="#1a1725" stroke-width="1"/>
<rect x="288.5" y="256.5" width="103" height="63" fill="#ffffff" stroke="#666" stroke-width="1"/>
<rect x="288.5" y="324.5" width="103" height="19" fill="none" stroke="#999" stroke-width="1" stroke-dasharray="2 2"/>
<rect x="168.5" y="352.5" width="103" height="63" fill="#ffffff" stroke="#666" stroke-width="1"/>
<rect x="168.5" y="420.5" width="103" height="19" fill="none" stroke="#999" stroke-width="1" stroke-dasharray="2 2"/>
<rect x="288.5" y="352.5" width="103" height="63" fill="#ffffff" stroke="#666" stroke-width="1"/>
<rect x="288.5" y="420.5" width="103" height="19" fill="none" stroke="#999" stroke-width="1" stroke-dasharray="2 2"/>
<rect x="168.5" y="448.5" width="103" height="63" fill="#ffffff" stroke="#666" stroke-width="1"/>
<rect x="168.5" y="516.5" width="103" height="19" fill="none" stroke="#999" stroke-width="1" stroke-dasharray="2 2"/>
<rect x="288.5" y="448.5" width="103" height="63" fill="#ffffff" stroke="#666" stroke-width="1"/>
<rect x="288.5" y="516.5" width="103" height="19" fill="none" stroke="#999" stroke-width="1" stroke-dasharray="2 2"/>
<line x1="408" y1="548.5" x2="856" y2="548.5" stroke="#999" stroke-dasharray="2 2"/>
<rect x="488.5" y="112.5" width="287" height="439" fill="none" stroke="#888" stroke-width="1" stroke-dasharray="6 4"/>
<rect x="512.5" y="104.5" width="239" height="319" fill="none" stroke="#9fb8c8" stroke-width="1" stroke-dasharray="1 3"/>
<rect x="488.5" y="368.5" width="287" height="71" fill="#e4e8ec" stroke="#777" stroke-width="1"/>
<rect x="520.5" y="328.5" width="223" height="95" fill="#f2f2f2" stroke="#444" stroke-width="1"/>
<rect x="560.5" y="216.5" width="143" height="175" fill="#ffe2bf" stroke="#c45f12" stroke-width="3"/>
<line x1="520" y1="392.5" x2="744" y2="392.5" stroke="#c45f12" stroke-width="1" stroke-dasharray="4 3"/>
<rect x="520.5" y="456.5" width="223" height="23" fill="none" stroke="#999" stroke-width="1" stroke-dasharray="2 2"/>
<rect x="552.5" y="456.5" width="159" height="23" fill="none" stroke="#888" stroke-width="1" stroke-dasharray="1 2"/>
<rect x="592.5" y="456.5" width="79" height="23" fill="#eef1f3" stroke="#888" stroke-width="1"/>
<rect x="520.5" y="488.5" width="223" height="39" fill="none" stroke="#999" stroke-width="1" stroke-dasharray="2 2"/>
<rect x="856.5" y="232.5" width="151" height="151" fill="#d9dde2" stroke="#8a929a" stroke-width="1"/>
<rect x="872.5" y="248.5" width="119" height="119" fill="#e6eef7" stroke="#2f5f8f" stroke-width="1.5"/>
<line x1="704" y1="306.5" x2="872" y2="306.5" stroke="#999" stroke-width="1" stroke-dasharray="2 2"/>
<text x="20" y="21" font-size="11" fill="#222">Screen name 20px · turn 16px</text>
<text x="388" y="21" font-size="11" fill="#222">Energy · Data · Essence 16px</text>
<text x="644" y="21" font-size="11" fill="#222">Companion state 16px, right</text>
<text x="20" y="583" font-size="11" fill="#222">✓ verb · price · ← where</text>
<text x="404" y="583" font-size="11" fill="#222">subject, centred</text>
<text x="636" y="583" font-size="11" fill="#222">what needs you, right</text>
<text x="28" y="501" font-size="11" fill="#222">Hatch 80×56</text>
<text x="28" y="513" font-size="9" fill="#777">24,488</text>
<text x="174" y="59" font-size="9" fill="#222">Co</text>
<text x="238" y="59" font-size="11" fill="#222">Face</text>
<text x="238" y="76" font-size="8" fill="#777">208 · label y 43, pips y 71</text>
<text x="366" y="59" font-size="9" fill="#222">Sh</text>
<text x="422" y="59" font-size="9" fill="#222">Le</text>
<text x="478" y="59" font-size="9" fill="#222">Mo</text>
<text x="534" y="59" font-size="9" fill="#222">St</text>
<text x="590" y="59" font-size="9" fill="#222">Ch</text>
<text x="648" y="64" font-size="9" fill="#777">run 488: compact 56, open tab 136</text>
<text x="172" y="133" font-size="10" fill="#222">emblem 24 + chapter word 20px</text>
<text x="172" y="155" font-size="9" fill="#777">page 152,112 256×440</text>
<text x="172" y="172" font-size="9" fill="#222">trait 1 · 104×64</text>
<text x="172" y="183" font-size="8" fill="#777">168,160</text>
<text x="172" y="242" font-size="8" fill="#777">name 16px</text>
<text x="292" y="172" font-size="9" fill="#222">trait 2 · 104×64</text>
<text x="292" y="183" font-size="8" fill="#777">288,160</text>
<text x="292" y="242" font-size="8" fill="#777">name 16px</text>
<text x="172" y="268" font-size="9" fill="#222">trait 3 · 104×64</text>
<text x="172" y="279" font-size="8" fill="#777">168,256</text>
<text x="172" y="338" font-size="8" fill="#777">name 16px</text>
<text x="292" y="268" font-size="9" fill="#222">trait 4 · 104×64</text>
<text x="292" y="279" font-size="8" fill="#777">288,256</text>
<text x="292" y="338" font-size="8" fill="#777">name 16px</text>
<text x="172" y="364" font-size="9" fill="#222">trait 5 · 104×64</text>
<text x="172" y="375" font-size="8" fill="#777">168,352</text>
<text x="172" y="434" font-size="8" fill="#777">name 16px</text>
<text x="292" y="364" font-size="9" fill="#222">trait 6 · 104×64</text>
<text x="292" y="375" font-size="8" fill="#777">288,352</text>
<text x="292" y="434" font-size="8" fill="#777">name 16px</text>
<text x="172" y="460" font-size="9" fill="#222">trait 7 · 104×64</text>
<text x="172" y="471" font-size="8" fill="#777">168,448</text>
<text x="172" y="530" font-size="8" fill="#777">name 16px</text>
<text x="292" y="460" font-size="9" fill="#222">trait 8 · 104×64</text>
<text x="292" y="471" font-size="8" fill="#777">288,448</text>
<text x="292" y="530" font-size="8" fill="#777">name 16px</text>
<text x="560" y="546" font-size="9" fill="#777">pod room 408 to 856 (448)</text>
<text x="580" y="125" font-size="9" fill="#6f8ea3">cone of light 512,104 240×320</text>
<text x="492" y="436" font-size="8" fill="#777">slab 488,368 288×72</text>
<text x="564" y="229" font-size="11" fill="#222">POD 144×176</text>
<text x="564" y="241" font-size="9" fill="#777">560,216 · axis x 632, foot y 392</text>
<text x="524" y="417" font-size="10" fill="#222">dish 224×96 (+ near lip) 520,328</text>
<text x="596" y="471" font-size="9" fill="#222">Loika 20px</text>
<text x="676" y="471" font-size="8" fill="#777">592,456 80×24</text>
<text x="524" y="501" font-size="10" fill="#222">caption 16px, bone, no plate</text>
<text x="524" y="513" font-size="9" fill="#777">520,488 224×40 · 8 under the name</text>
<text x="860" y="244" font-size="8" fill="#555">case 856,232 152×152 + front glass</text>
<text x="876" y="261" font-size="11" fill="#222">STAMP label 120</text>
<text x="876" y="273" font-size="9" fill="#777">872,248</text>
<text x="770" y="301" font-size="9" fill="#777">168 px</text>
</svg>
