<svg xmlns="http://www.w3.org/2000/svg" viewBox="0 0 1024 600" width="1024" height="600" font-family="ui-monospace, Menlo, Consolas, monospace">
<title>Create: the navigation map and keys, 1024×600 at 1×.</title>
<defs><pattern id="g8" width="8" height="8" patternUnits="userSpaceOnUse"><path d="M8 0H0V8" fill="none" stroke="#efefef" stroke-width="0.5"/></pattern><marker id="ah" viewBox="0 0 8 8" refX="7" refY="4" markerWidth="7" markerHeight="7" orient="auto"><path d="M0 0L8 4L0 8z" fill="#2b6cb0"/></marker><marker id="ao" viewBox="0 0 8 8" refX="7" refY="4" markerWidth="7" markerHeight="7" orient="auto"><path d="M0 0L8 4L0 8z" fill="#c45f12"/></marker><marker id="ag" viewBox="0 0 8 8" refX="7" refY="4" markerWidth="7" markerHeight="7" orient="auto"><path d="M0 0L8 4L0 8z" fill="#6b6880"/></marker></defs>
<rect width="1024" height="600" fill="#ffffff"/><rect width="1024" height="600" fill="url(#g8)"/>
<text x="16" y="24" font-size="14" fill="#222" font-weight="600">Create: what each key does (the ring stays on the chosen roll picture)</text>
<rect x="16.5" y="88.5" width="151" height="47" fill="#f2f2f2" stroke="#444" stroke-width="1"/>
<text x="92" y="108" font-size="12" fill="#222" text-anchor="middle" font-weight="600">Pods overview</text>
<text x="92" y="124" font-size="9" fill="#777" text-anchor="middle">an identified pod</text>
<rect x="272.5" y="48.5" width="151" height="47" fill="#f2f2f2" stroke="#444" stroke-width="1"/>
<text x="348" y="68" font-size="12" fill="#222" text-anchor="middle" font-weight="600">Create, nothing read</text>
<text x="348" y="84" font-size="9" fill="#777" text-anchor="middle">03e · no ring</text>
<rect x="272.5" y="128.5" width="151" height="47" fill="#f2f2f2" stroke="#444" stroke-width="1"/>
<text x="348" y="148" font-size="12" fill="#222" text-anchor="middle" font-weight="600">Create, shape</text>
<text x="348" y="164" font-size="9" fill="#777" text-anchor="middle">03 · 03b</text>
<rect x="528.5" y="88.5" width="151" height="47" fill="#f2f2f2" stroke="#444" stroke-width="1"/>
<text x="604" y="108" font-size="12" fill="#222" text-anchor="middle" font-weight="600">Create, grow</text>
<text x="604" y="124" font-size="9" fill="#777" text-anchor="middle">03c · input held</text>
<rect x="784.5" y="88.5" width="151" height="47" fill="#f2f2f2" stroke="#444" stroke-width="1"/>
<text x="860" y="108" font-size="12" fill="#222" text-anchor="middle" font-weight="600">Incubator</text>
<text x="860" y="124" font-size="9" fill="#777" text-anchor="middle">growing · ← Home</text>
<line x1="168" y1="104" x2="270" y2="74" stroke="#2b6cb0" stroke-width="1.5" marker-end="url(#ah)"/>
<line x1="168" y1="112" x2="270" y2="148" stroke="#2b6cb0" stroke-width="1.5" marker-end="url(#ah)"/>
<text x="176" y="92" font-size="9" fill="#2b6cb0">✓ Shape a founder</text>
<line x1="270" y1="164" x2="170" y2="130" stroke="#6b6880" stroke-width="1.5" marker-end="url(#ag)"/>
<text x="170" y="172" font-size="9" fill="#6b6880">← Loika: ring on the pod</text>
<line x1="424" y1="74" x2="526" y2="104" stroke="#2b6cb0" stroke-width="1.5" marker-end="url(#ah)"/>
<line x1="424" y1="152" x2="526" y2="120" stroke="#2b6cb0" stroke-width="1.5" marker-end="url(#ah)"/>
<text x="475" y="116" font-size="9" fill="#2b6cb0" text-anchor="middle">✓ Grow it</text>
<line x1="680" y1="112" x2="782" y2="112" stroke="#2b6cb0" stroke-width="1.5" marker-end="url(#ah)"/>
<text x="731" y="106" font-size="9" fill="#2b6cb0" text-anchor="middle">a jump, 1080 ms</text>
<path d="M 300 176 C 300 206, 396 206, 396 178" fill="none" stroke="#c45f12" stroke-width="1.5" marker-end="url(#ao)"/>
<text x="348" y="214" font-size="9" fill="#c45f12" text-anchor="middle">◀ ▶ ▲ ▼ step</text>
<rect x="16.5" y="232.5" width="511" height="263" fill="#fff" stroke="#bbb" stroke-width="1"/>
<rect x="132.5" y="238.5" width="279" height="19" fill="#eceff1" stroke="#5a6672" stroke-width="1"/>
<text x="272" y="250" font-size="9" fill="#555" text-anchor="middle">rail: not a target; the open tab follows ◀ ▶</text>
<rect x="168.5" y="270.5" width="63" height="35" fill="#e9edf0" stroke="#666" stroke-width="1"/>
<rect x="240.5" y="270.5" width="63" height="35" fill="#e9edf0" stroke="#666" stroke-width="1"/>
<rect x="312.5" y="270.5" width="63" height="35" fill="#e9edf0" stroke="#666" stroke-width="1"/>
<rect x="237.5" y="267.5" width="69" height="41" rx="4" fill="none" stroke="#d29a00" stroke-width="2"/>
<rect x="172.5" y="334.5" width="199" height="159" fill="#eef2f6" stroke="#8ca0ab" stroke-width="1"/>
<rect x="196.5" y="338.5" width="151" height="155" fill="#ffe2c4" stroke="#c45f12" stroke-width="1"/>
<rect x="60.5" y="334.5" width="71" height="87" fill="none" stroke="#999" stroke-width="1"/>
<rect x="404.5" y="270.5" width="87" height="111" fill="none" stroke="#8ca0ab" stroke-width="1"/>
<rect x="418.5" y="418.5" width="59" height="59" fill="#e6eef8" stroke="#2b6cb0" stroke-width="1"/>
<line x1="272" y1="264" x2="272" y2="254" stroke="#c45f12" stroke-width="1.5" marker-end="url(#ao)"/>
<line x1="272" y1="312" x2="272" y2="322" stroke="#c45f12" stroke-width="1.5" marker-end="url(#ao)"/>
<line x1="232" y1="288" x2="210" y2="288" stroke="#2b6cb0" stroke-width="1.5" marker-end="url(#ah)"/>
<line x1="312" y1="288" x2="334" y2="288" stroke="#2b6cb0" stroke-width="1.5" marker-end="url(#ah)"/>
<text x="16" y="514" font-size="10" fill="#555">Mini Create (shape) at half scale. Orange: ▲ ▼ roll the trait among its looks (step:up,</text>
<text x="16" y="527" font-size="10" fill="#555">step:down; wraps among three; a single look: nothing). Blue: ◀ ▶ the previous or next read</text>
<text x="16" y="540" font-size="10" fill="#555">trait in ring order (the ends stop). The ring never moves off the roll. Nothing read: no ring.</text>
<text x="560" y="248" font-size="13" fill="#222" font-weight="700">Keys on Create</text>
<text x="560" y="268" font-size="11" fill="#222" font-weight="600">opens on</text>
<text x="656" y="268" font-size="11" fill="#222">shape: the roll, the first read trait, as the pod is;</text>
<text x="560" y="283" font-size="11" fill="#222" font-weight="600"></text>
<text x="656" y="283" font-size="11" fill="#222">nothing read: the ring on nothing</text>
<text x="560" y="298" font-size="11" fill="#222" font-weight="600">◀ ▶</text>
<text x="656" y="298" font-size="11" fill="#222">the previous, next read trait; the ends stop</text>
<text x="560" y="313" font-size="11" fill="#222" font-weight="600">▲ ▼</text>
<text x="656" y="313" font-size="11" fill="#222">the trait's look among its three; a single: nothing</text>
<text x="560" y="328" font-size="11" fill="#222" font-weight="600">arrows</text>
<text x="656" y="328" font-size="11" fill="#222">nothing read: nothing</text>
<text x="560" y="343" font-size="11" fill="#222" font-weight="600">✓</text>
<text x="656" y="343" font-size="11" fill="#222">Grow it: checked whole, then paid (03c)</text>
<text x="560" y="358" font-size="11" fill="#222" font-weight="600">✓ blocked</text>
<text x="656" y="358" font-size="11" fill="#222">busy, no bay, clash: no ✓ cap, nothing</text>
<text x="560" y="373" font-size="11" fill="#222" font-weight="600">✓ short</text>
<text x="656" y="373" font-size="11" fill="#222">dimmed cap: a plate names what is short</text>
<text x="560" y="388" font-size="11" fill="#222" font-weight="600">←</text>
<text x="656" y="388" font-size="11" fill="#222">the pod's overview, the ring on the pod;</text>
<text x="560" y="403" font-size="11" fill="#222" font-weight="600"></text>
<text x="656" y="403" font-size="11" fill="#222">nothing spent, the choices dropped</text>
<text x="560" y="418" font-size="11" fill="#222" font-weight="600">room keys</text>
<text x="656" y="418" font-size="11" fill="#222">drop the unpaid choices; back starts fresh</text>
<text x="560" y="433" font-size="11" fill="#222" font-weight="600">after Grow</text>
<text x="656" y="433" font-size="11" fill="#222">the Incubator; its ← reads Home (a jump)</text>
<text x="560" y="448" font-size="11" fill="#222" font-weight="600">held</text>
<text x="656" y="448" font-size="11" fill="#222">during the grow event, no key acts</text>
</svg>
